<?xml version="1.0" encoding="UTF-8" standalone="no"?>
<svg
   width="125"
   height="125"
   version="1.1"
   id="svg34"
   xmlns="http://www.w3.org/2000/svg"
   xmlns:svg="http://www.w3.org/2000/svg">
  <defs
     id="defs34" />
  <g
     id="g1"
     transform="matrix(0.94109366,0,0,0.94109366,-26.688546,7.7520428)">
    <g
       id="layer3"
       transform="matrix(0.67596299,0,0,0.67596299,33.519573,15.236183)">
      <path
         fill="#ffffff"
         d="m 109.57,9.5312 c -1.9412,0.04727 -3.4885,0.53843 -4.3125,1.5312 -0.71106,0.85678 -2.7937,2.1723 -4.625,2.9375 -1.8313,0.76516 -3.3125,1.8156 -3.3125,2.3125 0,0.49687 -7.2292,1.2056 -16.062,1.5938 -14.146,0.62168 -17.352,1.0953 -26.812,4 -3.8968,1.1964 -5.171847,4.891431 -7.838447,5.347731 -9.15774,-0.469376 -12.146157,2.131448 -18.942503,6.152269 -4.7091,2.5061 -8.3438,5.5607 -8.3438,7 0,0.59244 1.9125,2.2694 4.25,3.75 l 4.25,2.6875 -3.125,0.84375 c -3.1083,0.81237 -6.7052,3.8125 -4.5625,3.8125 0.59092,0 2.4089,1.9125 4.0312,4.25 7.7587,11.179 23.521,24.75 28.75,24.75 0.76494,0 1.4062,0.38401 1.4062,0.84375 0,0.45974 1.6264,2.9347 3.625,5.5 3.8001,4.8776 5.375,5.7508 5.375,3.0312 0,-1.1646 0.59901,-1.4385 2.1562,-1.0312 0.57881,0.15136 1.1329,0.20172 1.6562,0.1875 0.17446,-0.005 0.33271,-0.009 0.5,-0.0313 2.0075,-0.26946 3.4998,-1.8116 4,-4.3125 l 0.5625,-2.875 11.312,-0.625 c 3.1092,-0.17589 6.282,-0.44825 8.875,-0.71875 1.2965,-0.13525 2.4423,-0.27183 3.375,-0.40625 0.93274,-0.13442 1.65,-0.25774 2.0625,-0.375 2.2572,-0.64166 3.9191,-0.38382 6.7187,1.0625 0.32015,0.16539 0.6309,0.30103 0.9375,0.4375 2.1462,0.9553 3.9639,1.2116 5.7812,0.8125 0.17239,-0.03786 0.37135,-0.08849 0.5625,-0.15625 0.19115,-0.06776 0.38539,-0.15405 0.59375,-0.25 6.2509,-2.8784 19.906,-18.051 19.906,-22.562 0,-0.29267 -1.5864,-0.53125 -3.5312,-0.53125 h -3.5625 l 2.5625,-3.7188 c 1.3948,-2.0527 2.5312,-4.258 2.5312,-4.875 0,-1.9559 3.2302,-4.9706 6.0312,-6.0312 0.21546,-0.08159 0.44772,-0.13037 0.65625,-0.1875 0.41706,-0.11426 0.81833,-0.1875 1.1875,-0.1875 1.6304,0 2.788,0.54287 3.0938,0.875 0.54709,0.59438 4.53,4.1693 9.4375,8.5 8.2199,7.2537 9.039,7.7186 10.25,6.0625 0.72267,-0.9883 1.2431,-2.2044 1.5938,-3.5938 0.0701,-0.27788 0.13244,-0.55231 0.1875,-0.84375 0.55064,-2.9144 0.36729,-6.4971 -0.625,-10.312 -1.3463,-5.1766 -1.3583,-6.2805 0,-10.406 1.2457,-3.7839 1.3385,-5.771 0.4375,-11.031 -0.6052,-3.5331 -1.338,-6.6817 -1.625,-6.9688 -0.28704,-0.28704 -3.8313,2.159 -7.875,5.4375 -7.1647,5.8088 -11.211,8.6894 -14.375,9.4375 -0.35155,0.08312 -0.69836,0.1557 -1.0312,0.1875 -1.9973,0.1908 -3.713,-0.53063 -5.8125,-1.9062 l -2.8438,-1.875 3.1562,-0.8125 c 1.7319,-0.44879 3.1562,-1.3334 3.1562,-1.9688 0,-0.63538 -2.1772,-3.2423 -4.8438,-5.8125 -5.5277,-5.328 -15.083,-9.0793 -20.906,-8.9375 z"
         id="path1" />
    </g>
    <path
       style="color:#000000;text-indent:0;text-align:start;text-transform:none;direction:ltr;fill:#bac3d7;fill-opacity:1;stroke-width:0.675963;enable-background:accumulate"
       fill="#cdcdcd"
       d="m 141.90982,27.093926 c 2.17092,4.528614 0.73579,9.968426 -0.48333,13.995138 1.19754,3.802427 2.27807,8.598925 0.81008,12.424199 -2.13469,2.573594 -5.42528,-2.315443 -7.76749,-4.134189 -2.94653,-2.029579 -5.58718,-6.685815 -9.42901,-5.106766 -3.91877,1.666384 -4.22782,5.630164 -6.47411,8.832133 -2.11826,3.091584 -2.68722,6.742866 -6.04324,9.196476 -6.25942,4.553963 -13.904564,6.7718 -21.626766,7.1233 -7.20509,0.185214 -14.869158,0.317703 -21.959334,-0.541446 -5.600353,-0.95311 -9.379662,-6.256715 -13.194121,-9.940038 -2.699121,-2.671406 -5.903185,-6.143827 -7.273362,-9.63112 5.920287,-3.551848 6.48965,-0.416509 9.523642,3.0588 -1.523553,-1.996727 -3.143633,-3.775524 -4.828538,-5.549521 -3.206498,-2.417514 -7.776955,-4.454596 -3.105915,-6.862377 4.755258,-2.687402 21.174067,-9.7213 24.639054,-10.739706 6.742122,-1.491648 13.711909,-1.142851 20.573609,-1.383629 3.748351,-0.08837 7.927701,-0.162508 11.623191,0.152071 4.62581,0.276327 6.47863,0.913632 9.30125,3.071982 3.80168,2.172815 5.7957,5.356128 10.64033,6.109421 4.65854,-2.299423 7.91283,-5.393914 11.99362,-8.085869 0.72037,-0.595625 2.3391,-1.752434 3.08103,-1.989021 z"
       id="path2" />
    <path
       style="color:#000000;text-indent:0;text-align:start;text-transform:none;direction:ltr;stroke-width:0.675963;enable-background:accumulate"
       fill="#ffffff"
       d="m 140.94995,29.514549 c -4.83002,3.082865 -6.62795,9.208644 -14.41896,9.329641 -5.49025,0.08556 -10.97427,-9.111981 -18.77758,-8.436018 -10.231383,-0.02038 -21.144129,-0.393653 -31.812177,1.204026 -5.247839,0.895245 -25.647395,10.00628 -26.338973,11.36963 1.317182,1.617444 2.779493,1.646375 4.264245,3.073333 0.811021,1.138457 1.756625,2.208371 2.639298,3.253072 2.613678,3.12714 3.095775,3.893141 3.040617,4.732146 -0.876048,0.303744 -2.288203,-1.077417 -3.81108,-3.203524 -1.008469,-1.763587 -3.871375,-2.509107 -5.882365,-1.51828 4.016234,5.75089 9.702097,11.58533 15.034093,15.505239 4.71518,3.298699 12.986601,2.117995 20.095704,2.001797 12.693233,-0.553695 19.936178,0.08923 27.588758,-7.381516 3.7618,-3.866508 5.95442,-9.165382 9.26745,-13.630794 2.75557,-3.714011 7.59715,-3.563068 11.09661,-0.280605 3.33345,3.126126 4.09904,4.801567 7.75668,6.988781 2.43367,-4.84537 -0.94912,-5.86479 -1.88405,-9.768341 0.62304,-3.933091 4.19882,-9.178226 2.14308,-13.238059 z"
       id="path3" />
    <path
       fill="#000000"
       d="m 56.753759,56.68195 c -2.236626,-2.299964 -3.918693,-4.329678 -3.737873,-4.510498 0.18082,-0.18082 2.32876,1.700993 4.773245,4.181777 2.444485,2.480784 4.126484,4.510498 3.737873,4.510498 -0.388631,0 -2.536619,-1.881813 -4.773245,-4.181777 z"
       id="path4"
       style="fill:#313a69;fill-opacity:1;stroke-width:0.675963" />
    <path
       fill="#000000"
       d="m 87.517511,45.159485 c -1.285006,-1.555323 -0.490777,-2.253323 -1.189695,-3.761802 -0.139702,-0.30154 -1.88107,0.720239 -3.287344,1.5245 -1.591352,0.910049 -2.539728,1.431554 -2.175248,2.080478 0.356651,0.635027 0.852659,0.458986 2.259676,-0.241224 0.808249,-0.402252 2.388177,-1.184625 2.527358,-0.934992 0.164766,0.29541 -1.257764,1.012931 -2.186199,1.517132 -1.367676,0.74268 -2.229799,0.829136 -2.040462,1.468326 0.247247,0.83468 0.756402,0.434976 2.327408,0.444196 1.465555,0.0086 2.441984,-0.08203 2.440159,0.167409 -0.002,0.322583 -0.782292,0.372374 -2.548043,0.515456 -1.139808,0.09236 -1.94968,0.151949 -2.146791,0.771273 -0.244238,0.767218 0.08356,0.968453 1.748784,1.328741 2.324637,0.502977 2.162676,1.114933 -0.256291,0.546908 -2.93057,-0.68813 -2.859256,0.225407 0.256819,2.053846 2.50255,1.468394 2.581367,1.681458 3.624716,0.174114 0.589622,-0.851848 1.334554,-2.885956 1.254722,-4.659615 -0.05671,-1.259792 0.08409,-2.155105 -0.609549,-2.994652 h 2.7e-5 z m -8.501587,5.792124 c 2.105895,-1.598923 2.443809,-4.22896 0.153491,-6.393934 1.473532,-1.238297 3.843188,-3.361361 7.737748,-4.503739 0.77053,-0.226008 0.285135,3.043659 1.746621,4.82739 1.274799,1.555864 0.466962,5.847891 -0.208582,7.315272 -0.455396,0.989204 -0.845021,1.904796 -2.364316,3.246109 -2.104948,-0.899909 -6.510943,-3.249016 -7.065165,-4.49103 z"
       id="path5"
       style="fill:#313a69;fill-opacity:1;stroke-width:0.675963" />
    <path
       fill="#000000"
       d="m 69.759963,52.48084 c 2.961461,-2.744613 5.537083,-10.027235 4.427422,-13.165055 -0.399872,-1.130751 -0.133563,-1.77224 0.271906,-1.269121 3.152083,3.911122 -2.138814,15.995313 -5.456305,16.058177 -0.665547,0.01261 -0.415211,-0.537167 0.756943,-1.623528 z"
       id="path6"
       style="fill:#313a69;fill-opacity:1;stroke-width:0.675963" />
    <path
       fill="#000000"
       d="m 65.325541,37.464734 c -2.535274,-0.194536 -6.915405,4.028123 -7.816539,7.838547 -0.324738,1.373127 -0.728083,1.709702 -0.684696,0.894604 0.33725,-6.336416 8.057199,-12.430694 9.55913,-9.51096 0.301314,0.58575 -0.05418,0.854378 -1.057671,0.777415 z"
       id="path6-3"
       style="fill:#313a69;fill-opacity:1;stroke-width:0.603536" />
    <path
       fill="#000000"
       d="m 92.154617,49.088182 c 0.414284,-1.305285 0.139877,-3.821354 -0.578077,-4.91317 -0.917417,-1.39512 -0.780737,-2.530264 0.23101,-1.554377 1.564855,1.509426 1.797183,6.821819 0.595639,8.452918 -0.898693,1.219572 -0.649385,-0.722267 -0.248572,-1.985101 z"
       id="path7"
       style="fill:#313a69;fill-opacity:1;stroke-width:0.675963" />
    <path
       fill="#000000"
       d="m 134.04405,46.109889 c -2.53925,-2.198908 -2.99107,-3.372718 -1.11392,-2.202355 2.36236,1.472856 5.23716,4.064362 4.22477,4.061185 -0.55767,-0.002 -1.90257,-0.824472 -3.11085,-1.85883 z"
       id="path8"
       style="fill:#313a69;fill-opacity:1;stroke-width:0.675963" />
    <path
       fill="#000000"
       d="m 136.35584,44.51732 c -2.37391,-1.253844 -3.88901,-2.580354 -2.84695,-2.580354 0.65988,0 6.35196,3.357103 6.35196,3.746323 0,0.564327 -0.98623,0.164434 -3.50501,-1.165969 z"
       id="path9"
       style="fill:#313a69;fill-opacity:1;stroke-width:0.675963" />
    <path
       fill="#000000"
       d="m 51.740817,42.143338 c -0.644206,-0.644206 -0.522222,-2.234801 0.171377,-2.234801 0.829272,0 1.49496,1.90439 0.813049,2.325853 -0.303684,0.187688 -0.746669,0.146731 -0.984405,-0.09101 z"
       id="path10"
       style="fill:#313a69;fill-opacity:1;stroke-width:0.675963" />
    <path
       fill="#000000"
       d="m 128.02798,39.908604 c 0.22977,-0.371779 2.76151,-0.467225 4.24863,-0.467225 1.63042,0 2.71291,0.134584 2.58596,0.467225 -0.15585,0.408323 -1.83442,0.667142 -3.32154,0.667142 -1.63043,0 -3.76498,-0.259529 -3.51305,-0.667142 z"
       id="path11"
       style="fill:#313a69;fill-opacity:1;stroke-width:0.675963" />
    <path
       fill="#000000"
       d="m 133.77367,37.425792 c 0,-0.616032 6.1495,-3.009117 6.59293,-2.565685 0.35193,0.351934 -4.86855,3.045889 -5.89007,3.045889 -0.38659,0 -0.70286,-0.188593 -0.70286,-0.480177 z"
       id="path12"
       style="fill:#313a69;fill-opacity:1;stroke-width:0.675963" />
    <path
       fill="#000000"
       d="m 133.08418,35.621647 c 1.56594,-1.540858 6.08942,-4.737284 6.49776,-4.328867 0.20464,0.204634 -1.06132,1.466569 -2.81329,2.8043 -3.2094,2.450569 -5.2504,3.065492 -3.68447,1.524635 z"
       id="path13"
       style="fill:#313a69;fill-opacity:1;stroke-width:0.675963" />
    <path
       d="m 107.57808,21.675185 c -1.31218,0.03195 -2.38761,0.343717 -2.94453,1.014793 -0.48065,0.579152 -1.83784,1.488636 -3.07573,2.005883 -1.23789,0.51722 -2.260288,1.227279 -2.260288,1.563165 0,0.335865 -4.886673,0.69754 -10.857318,0.959948 -9.562173,0.420233 -11.707679,0.857784 -18.102965,2.821253 -4.716859,0.543876 -6.820518,1.933067 -8.900953,2.797412 -2.719432,1.129826 -5.034191,1.946868 -9.397974,4.720311 -1.64651,1.066737 -3.329185,2.51999 -4.58722,2.924351 -1.007388,0.323752 -0.889364,0.875642 -0.912144,2.122929 -0.0073,0.4004 1.326915,1.495501 2.906979,2.496332 l 2.7154,1.788024 -1.954942,0.577846 c -2.101096,0.549132 -4.635833,2.631069 -3.187447,2.631069 0.39944,0 1.731693,1.238819 2.828375,2.818883 5.244594,7.55659 14.555193,16.611536 19.407931,16.941406 0.515882,0.03502 0.976409,0.04825 0.976409,0.359021 0,0.310768 1.099386,1.983749 2.450366,3.717798 2.568727,3.297077 3.683396,3.951736 3.683396,2.113387 0,-0.787227 0.390596,-0.950903 1.443199,-0.675583 2.086697,0.545677 3.724876,-0.641304 4.175676,-2.895317 l 0.38704,-1.886141 7.589756,-0.439246 c 4.203409,-0.23779 8.579287,-0.545106 9.694625,-0.862132 1.525789,-0.433739 2.628929,-0.451744 4.521419,0.525915 1.73128,0.894367 3.17908,1.254536 4.58299,0.946162 3.72888,-0.818997 14.32476,-12.431244 14.32476,-15.684654 0,-0.197834 -1.20117,-0.301853 -2.51578,-0.301853 h -2.38696 l 1.8255,-2.41358 c 0.94283,-1.38755 1.65272,-3.039167 1.65272,-3.456236 0,-1.627246 3.2706,-4.067213 5.26699,-4.067213 1.10209,0 1.78429,0.407443 1.99093,0.63195 0.36981,0.401779 2.90018,2.818293 6.21747,5.745686 5.55635,4.903233 6.37232,4.995679 7.19105,3.876284 1.56316,-2.1378 2.05719,-5.84397 0.98397,-9.970454 -0.91005,-3.49919 -0.89701,-4.18551 0.0211,-6.974736 0.84204,-2.557776 0.72174,-3.941465 0.11267,-7.49703 -0.4091,-2.388245 -0.86395,-4.738391 -1.05795,-4.932393 -0.19403,-0.194028 -2.79224,1.418921 -5.52563,3.635066 -8.60974,6.98067 -10.35612,7.716719 -14.14084,5.236949 l -1.98212,-1.043925 2.19336,-0.367928 c 1.1707,-0.303365 2.2954,-1.022779 2.2954,-1.452286 0,-0.429493 -1.67882,-2.308422 -3.48135,-4.045783 -3.73652,-3.60153 -10.23133,-6.101488 -14.16746,-6.005637 9e-5,2.7e-5 9e-5,2.17e-4 1.2e-4,3.04e-4 z m 1.96516,1.371327 c -1.49807,0.672312 -2.75468,1.000966 -5.77299,3.406988 -0.91411,-0.07375 -1.57297,-0.04858 -2.65607,-0.02669 0.0185,-0.526852 3.77168,-1.894116 5.42866,-3.624378 1.21728,-0.106444 1.98889,-0.09288 3.0004,0.244063 z m 1.47096,0.42685 c 0.69368,0.134077 1.1098,0.263348 1.60244,0.487809 -1.02239,0.554654 -2.63585,1.677943 -3.37393,3.144985 -1.07242,-0.220208 -2.18086,-0.359862 -3.79161,-0.515685 1.88262,-1.353819 3.14992,-2.184916 5.56317,-3.117136 z m 2.70027,1.010429 c 0.88105,0.273481 2.55007,0.947903 3.34298,1.58946 -1.42142,0.291908 -2.81863,1.170632 -3.74822,1.9221 -0.67514,-0.204194 -1.46799,-0.531847 -2.67755,-0.756537 0.36907,-1.090531 1.86984,-2.070745 3.08279,-2.755023 z m 4.28878,2.197015 c 1.56763,0.836437 2.14646,1.398838 2.75672,2.077167 -1.16793,0.49108 -2.57562,0.955609 -3.55827,1.448791 -1.20856,-0.680424 -1.93386,-1.137037 -2.76597,-1.728572 0.70847,-0.730987 2.78807,-1.595814 3.56746,-1.797453 z m 23.54177,1.225927 c 0.0317,-0.0055 0.0522,-0.01117 0.0633,0 1.01699,1.017054 1.04308,7.480882 0.0422,10.540967 -0.97717,2.987418 -0.99901,3.568003 -0.10562,5.28096 1.23066,2.359584 1.31407,7.678264 0.14787,9.273537 -0.7804,1.067278 -1.42946,0.669703 -7.11857,-4.267017 -3.44856,-2.99242 -6.84007,-5.449951 -7.54104,-5.449951 -2.67182,0 -4.60182,1.342057 -6.02027,4.182521 -0.80406,1.610211 -2.53459,4.74019 -3.84454,6.97053 -1.30995,2.230678 -2.53851,4.574715 -2.7461,5.196466 -0.62579,1.874445 -7.16791,5.74582 -12.48436,7.393683 -4.423774,1.37092 -6.636742,1.565462 -19.201407,1.732155 -16.856489,0.223629 -16.591512,0.31652 -24.926135,-8.407628 -6.493504,-6.796808 -9.564201,-10.91545 -8.385997,-11.28047 3.945596,-1.220857 4.446552,-1.093303 6.886711,1.81665 1.324347,1.579523 2.556221,2.886498 2.563522,2.461993 0.03245,-1.192399 -6.258065,-7.761407 -8.36031,-9.114685 -2.591102,-1.668074 -2.562508,-2.629429 0.633715,-4.330354 1.205918,-0.641759 2.572985,-1.491513 3.041833,-1.879988 0.666973,-0.552688 12.463913,-5.513966 12.463913,-5.513966 3.68508,-1.02334 4.009407,-0.929584 5.618942,1.330836 1.687542,2.369926 2.363708,2.186605 2.957338,-0.781548 0.957367,-4.786765 2.977888,-5.139752 5.154218,-0.908359 2.031607,3.950057 3.06022,4.803393 4.39376,3.696706 0.557669,-0.462825 1.013944,-1.364228 1.013944,-2.006799 0,-0.642557 0.331181,-2.124484 0.739368,-3.295319 0.592435,-1.699439 1.118652,-2.133475 2.619357,-2.133475 1.469003,0 2.081696,0.457411 2.767257,2.112385 0.960814,2.319634 3.820881,5.999171 4.668336,5.999171 0.489722,0 0.862394,-0.820484 2.872844,-6.252658 0.579661,-1.566206 1.095061,-1.858898 3.189731,-1.858898 2.19844,0 2.56157,0.268297 3.27423,2.239128 0.44324,1.225791 1.23262,2.794498 1.75332,3.506558 1.26439,1.729181 2.81721,0.499178 3.42206,-2.724942 0.24162,-1.28798 0.57042,-2.344781 0.71821,-2.344781 0.6832,0 5.64456,3.163913 7.62554,4.858484 3.29735,2.820321 6.14586,4.110734 8.04802,3.633301 0.91823,-0.230449 4.39545,-2.586167 7.73166,-5.217623 3.12741,-2.466994 5.86168,-4.374292 6.33716,-4.457165 z m -20.05447,1.774673 c 0.66071,0.509412 1.54539,1.449129 1.90189,1.744998 -0.70057,0.426749 -2.13057,0.767286 -3.21907,1.083164 -0.51768,-0.420902 -1.02078,-0.728486 -1.83659,-1.529705 0.69921,-0.507087 2.09142,-0.995085 3.15377,-1.298525 z m 0.22915,26.288877 c 0.11602,0.07284 -0.0337,0.429615 -0.47153,1.129737 -1.35861,0.10307 -2.56041,0.119733 -3.84453,-0.02112 0.40389,-0.70334 0.51415,-1.196658 0.63299,-1.23201 1.17205,-0.0079 2.52445,0.04724 3.68305,0.123343 z m -4.91378,2.279009 c 1.24884,0.206378 2.30416,0.204823 3.53394,0.160399 -0.4698,0.656441 -0.97258,1.356252 -1.54201,2.048979 -1.06457,-0.03191 -2.13868,-0.09018 -3.12633,-0.401353 0.36987,-0.592434 0.77709,-1.178068 1.1344,-1.808066 z m -2.00085,3.054001 c 0.88869,0.381317 1.83396,0.456045 2.8306,0.506972 -0.70679,0.790877 -1.43561,1.56188 -2.17579,2.323623 -1.18794,0.03032 -1.98639,-0.332601 -2.55595,-1.013945 0.6695,-0.50708 1.32468,-1.102766 1.90114,-1.81665 z m -3.44322,2.830595 c 0.88849,0.827378 1.77217,1.151435 2.68276,1.394173 -0.7295,0.931004 -1.64036,1.558974 -2.55595,2.070137 -1.15488,-0.383521 -2.75685,-0.602337 -3.18973,-1.689907 0.46866,-0.215437 0.8847,-0.412743 1.14069,-0.591468 0.45001,-0.314181 1.13751,-0.705165 1.9223,-1.182935 z m -5.17531,2.703852 c 0.66559,0.891595 2.60611,1.331106 3.92904,1.710997 -1.00421,0.658016 -1.93353,1.189763 -2.30247,1.161845 -1.38383,-0.10476 -4.24018,-1.048283 -3.92903,-1.542006 0.11687,-0.346803 1.14704,-0.82961 2.30246,-1.330836 z m -30.029656,4.337249 c 0.671772,0.661064 1.156506,0.696106 1.533625,-0.175859 0.398393,-0.921202 0.645782,-0.866179 0.654839,0.06334 0.0057,0.585803 -0.724902,1.728775 -1.605412,2.555952 l -1.584322,1.499826 -1.81665,-2.21121 c -1.046459,-1.273717 -1.870322,-2.442187 -1.401001,-2.450231 0.813589,-0.01393 0.915186,-0.09248 1.941771,1.017797 1.91426,2.070205 3.14965,1.769874 1.385995,0.227955 -1.559447,-1.363349 -1.048081,-1.379437 -0.426952,-1.37937 0.893826,7.5e-5 0.887675,0.42827 1.318128,0.851849 z m 4.490963,-0.851849 c 0.712195,0 0.835288,0.473269 0.464725,1.858898 -0.27342,1.022394 -1.03517,1.965093 -1.689908,2.091295 -1.055516,0.20337 -1.093302,0.05016 -0.316857,-1.351926 0.48161,-0.869694 0.818321,-1.812392 0.739368,-2.091295 -0.07899,-0.278834 0.277186,-0.506972 0.802706,-0.506972 z"
       fill="#000000"
       id="path14"
       style="fill:#313a69;fill-opacity:1;stroke-width:0.675963" />
    <path
       fill="#000000"
       d="m 104.2476,38.593856 c 0.42769,-0.606041 0.26429,-1.859574 -0.45366,-2.374252 -0.91742,-0.657631 -0.78074,-1.192737 0.23101,-0.732676 1.56485,0.711518 1.90635,3.133899 0.59564,3.984396 -0.89498,0.580693 -0.77378,-0.309497 -0.37299,-0.877468 z"
       id="path23"
       style="fill:#313a69;fill-opacity:1;stroke-width:0.675963" />
    <path
       fill="#000000"
       d="m 105.6198,38.05917 c -1.01712,-0.548761 -0.88727,-1.108647 0.20371,-0.89653 1.97435,0.383906 1.64354,3.490402 0.32264,3.984396 -1.13906,0.426039 -0.59249,-0.290333 -0.11156,-0.994003 0.57275,-0.837992 0.40787,-1.650094 -0.41479,-2.093931 z"
       id="path24"
       style="fill:#313a69;fill-opacity:1;stroke-width:0.675963" />
    <path
       fill="#000000"
       d="m 103.81498,43.214739 c 0.33723,-0.660672 0.34253,-1.692138 -0.29353,-2.315984 -0.80588,-0.790404 -0.63807,-1.307853 0.31291,-0.732676 1.53755,0.929922 1.33307,2.997422 0.40454,3.984396 -0.73099,0.777019 -0.79744,-0.203972 -0.42392,-0.935736 z"
       id="path25"
       style="fill:#313a69;fill-opacity:1;stroke-width:0.675963" />
    <path
       fill="#000000"
       d="m 108.61432,45.79489 c -0.76607,-0.871722 -0.42991,-1.554918 0.50509,-0.954122 1.44616,0.929247 1.19875,4.135745 0.0162,4.028672 -0.96804,-0.08769 0.74052,-1.638805 -0.52125,-3.074482 z"
       id="path26"
       style="fill:#313a69;fill-opacity:1;stroke-width:0.675963" />
    <path
       fill="#000000"
       d="m 110.27719,47.097471 c -1.17104,-0.180651 -0.97677,-1.030641 0.12809,-0.910387 1.9995,0.217619 2.00031,3.2042 0.84827,4.114587 -0.64103,0.506559 -0.64457,-0.368198 -0.45303,-0.809061 0.24159,-0.55602 1.09459,-1.477925 -0.52334,-2.395139 z"
       id="path27"
       style="fill:#313a69;fill-opacity:1;stroke-width:0.675963" />
    <path
       fill="#000000"
       d="m 108.22226,52.011046 c 0.61989,-0.407356 1.19375,-1.027329 0.72632,-1.785827 -0.52285,-0.848333 -0.1329,-1.748784 0.64626,-0.707328 1.07641,1.438788 -0.20561,3.098412 -1.50077,3.496825 -1.01969,0.313687 -0.55837,-0.552519 0.12822,-1.003738 z"
       id="path28"
       style="fill:#313a69;fill-opacity:1;stroke-width:0.675963" />
    <path
       fill="#000000"
       d="m 95.912971,56.071555 c 0.724227,-0.570465 0.525074,-1.810904 -0.382494,-2.421705 -0.841168,-0.566078 -0.602803,-1.145284 0.361471,-0.732676 1.580402,0.676166 2.036813,3.335539 0.465178,3.984396 -0.986095,0.407113 -0.990218,-0.399866 -0.444155,-0.830015 z"
       id="path29"
       style="fill:#313a69;fill-opacity:1;stroke-width:0.675963" />
    <path
       fill="#000000"
       d="m 97.535282,54.967708 c -0.988934,-0.59814 -0.831434,-1.301026 0.203708,-0.89653 1.831999,0.71598 1.643538,3.490403 0.322646,3.984396 -1.139067,0.42604 -0.852729,-0.520383 -0.265743,-0.839816 0.592408,-0.322394 0.728081,-1.650093 -0.260611,-2.248118 z"
       id="path30"
       style="fill:#313a69;fill-opacity:1;stroke-width:0.675963" />
    <path
       fill="#000000"
       d="m 96.048163,59.244999 c 0.528441,-0.159162 0.54626,-1.163062 -0.151206,-1.438314 -0.817374,-0.32257 -0.670879,-1.269999 0.31291,-0.732676 1.574453,0.859892 1.074106,2.726564 0.08431,2.905153 -1.022394,0.18443 -0.906669,-0.535126 -0.246017,-0.734096 z"
       id="path31"
       style="fill:#313a69;fill-opacity:1;stroke-width:0.675963" />
    <path
       fill="#000000"
       d="m 76.499314,59.509976 c 0.427688,-0.606041 0.264295,-1.859574 -0.453659,-2.374252 -0.917417,-0.657631 -0.780738,-1.192737 0.23101,-0.732676 1.564854,0.711518 1.906351,3.133899 0.595638,3.984396 -0.894975,0.580693 -0.773774,-0.309497 -0.372989,-0.877468 z"
       id="path32"
       style="fill:#313a69;fill-opacity:1;stroke-width:0.675963" />
    <path
       fill="#000000"
       d="m 77.66197,58.972045 c -1.039631,-0.504836 -0.933775,-1.069779 0.165253,-0.904371 1.988953,0.299276 1.791031,3.417061 0.492446,3.967024 -1.119868,0.474283 -0.604352,-0.264775 -0.153897,-0.988325 0.536458,-0.861718 0.337049,-1.665979 -0.503802,-2.07426 z"
       id="path33"
       style="fill:#313a69;fill-opacity:1;stroke-width:0.675963" />
    <path
       fill="#000000"
       d="m 75.816591,63.69101 c 0.470301,-0.573602 0.695363,-1.580198 0.206879,-2.325312 -0.618865,-0.943983 -0.34462,-1.413845 0.461899,-0.649168 1.304,1.236268 0.663505,3.212717 -0.454058,3.979056 -0.879834,0.603351 -0.735651,-0.369258 -0.21472,-1.004616 z"
       id="path34"
       style="fill:#313a69;fill-opacity:1;stroke-width:0.675963" />
    <path
       d="m 56.792722,16.320186 c 0.354824,-0.280881 0.414693,-0.796172 0.133792,-1.150954 -0.28086,-0.354763 -0.796172,-0.414693 -1.150873,-0.133792 z m -3.224845,0.463123 c -0.354803,0.28086 -0.414673,0.796172 -0.133792,1.150934 0.28086,0.354782 0.796152,0.414692 1.150873,0.133792 z m 0,1.284746 c 0.354721,0.28088 0.870012,0.22097 1.150872,-0.133792 0.280881,-0.354762 0.221012,-0.870074 -0.133791,-1.150934 z m -1.190745,-3.032636 c -0.354701,-0.28088 -0.870033,-0.22095 -1.150894,0.133792 -0.28088,0.354782 -0.22097,0.870074 0.133792,1.150954 z m 0.87996,2.390253 c 0,0.452501 0.366834,0.819335 0.819315,0.819335 0.452481,0 0.819315,-0.366834 0.819315,-0.819335 z m 1.63863,-3.932736 c 0,-0.452481 -0.366834,-0.819315 -0.819315,-0.819315 -0.452481,0 -0.819315,0.366834 -0.819315,0.819315 z m 0,3.932736 c 0,-0.452481 -0.366834,-0.819315 -0.819315,-0.819315 -0.452481,0 -0.819315,0.366834 -0.819315,0.819315 z m -1.63863,9.613381 c 0,0.452481 0.366834,0.819315 0.819315,0.819315 0.452481,0 0.819315,-0.366834 0.819315,-0.819315 z m -1.897041,1.105527 c -0.354783,0.28086 -0.414693,0.796172 -0.133792,1.150873 0.28086,0.354824 0.796193,0.414692 1.150893,0.133791 z m 3.224887,-0.463184 c 0.354823,-0.28086 0.414692,-0.796172 0.133791,-1.150873 -0.280861,-0.354824 -0.796151,-0.414693 -1.150873,-0.133791 z m 0,-1.284705 c -0.354722,-0.280861 -0.870013,-0.220992 -1.150874,0.133791 -0.28086,0.354701 -0.22099,0.870013 0.133792,1.150873 z m 1.190744,3.032594 c 0.354701,0.28086 0.870012,0.220992 1.150873,-0.133792 0.28086,-0.3547 0.220991,-0.870012 -0.133791,-1.150872 z m -0.87996,-2.390232 c 0,-0.452501 -0.366834,-0.819335 -0.819315,-0.819335 -0.452481,0 -0.819315,0.366834 -0.819315,0.819335 z m -1.63863,3.932736 c 0,0.452481 0.366834,0.819315 0.819315,0.819315 0.452481,0 0.819315,-0.366834 0.819315,-0.819315 z M 47.533327,22.8534 c -0.422026,-0.163205 -0.896465,0.04657 -1.05967,0.468659 -0.163206,0.422005 0.04657,0.896444 0.468638,1.059649 z m 2.04172,2.546452 c 0.422025,0.163205 0.896464,-0.04657 1.05967,-0.468638 0.163205,-0.422005 -0.04657,-0.896465 -0.468638,-1.059671 z m 1.105282,-0.639401 c 0.06883,-0.447232 -0.237823,-0.865642 -0.685034,-0.93456 -0.447232,-0.06884 -0.865621,0.237822 -0.934498,0.685054 z m -2.045581,2.516527 c -0.06883,0.447231 0.237822,0.865641 0.685053,0.934559 0.447211,0.06883 0.865601,-0.237822 0.934478,-0.685053 z m 1.642306,-1.929887 c 0.392878,-0.224484 0.529386,-0.725048 0.304882,-1.117885 -0.224505,-0.392836 -0.724988,-0.529386 -1.117865,-0.304901 z m -4.254121,0.543602 c -0.392898,0.224483 -0.529386,0.725028 -0.304882,1.117864 0.224505,0.392836 0.724987,0.529406 1.117864,0.304901 z m 3.441138,-1.966388 c -0.392877,0.224504 -0.529386,0.725048 -0.304881,1.117884 0.224504,0.392836 0.724987,0.529406 1.117864,0.304902 z m 9.224672,-3.383884 c 0.392836,-0.224505 0.529385,-0.725028 0.304901,-1.117885 -0.224483,-0.392877 -0.725047,-0.529385 -1.117884,-0.304882 z m 1.930765,1.070904 c 0.422005,0.163205 0.896444,-0.04657 1.059649,-0.468659 0.163205,-0.422005 -0.04657,-0.896444 -0.468658,-1.059649 z m -2.041741,-2.546472 c -0.422005,-0.163205 -0.896465,0.04657 -1.05967,0.468638 -0.163205,0.422046 0.04657,0.896485 0.468659,1.05969 z m -1.105322,0.639442 c -0.06883,0.447211 0.237822,0.86562 0.685053,0.934539 0.447252,0.06884 0.865642,-0.237822 0.93458,-0.685074 z m 2.045682,-2.516568 c 0.06884,-0.447231 -0.237822,-0.865621 -0.685073,-0.934498 -0.447232,-0.06884 -0.865641,0.237822 -0.93456,0.685053 z m -1.642367,1.929927 c -0.392837,0.224485 -0.529386,0.724988 -0.304902,1.117864 0.224504,0.392838 0.725049,0.529386 1.117885,0.304903 z m 4.254142,-0.543643 c 0.392837,-0.224504 0.529385,-0.724986 0.304881,-1.117843 -0.224484,-0.392898 -0.725027,-0.529385 -1.117864,-0.304882 z m -15.187607,1.509006 c -0.422046,0.163205 -0.631863,0.637644 -0.468638,1.059649 0.163205,0.422006 0.637644,0.631864 1.05967,0.468659 z m 3.223784,0.510164 c 0.422046,-0.163205 0.631863,-0.637644 0.468638,-1.05969 -0.163206,-0.422026 -0.637645,-0.631843 -1.05967,-0.468638 z M 49.060797,19.95376 c 0.06883,0.447252 0.487266,0.75391 0.934498,0.685074 0.447211,-0.06884 0.753931,-0.487328 0.685034,-0.934539 z m 1.193482,-3.015478 c -0.06884,-0.447231 -0.487267,-0.753951 -0.934478,-0.685053 -0.447231,0.06884 -0.753951,0.487267 -0.685053,0.934498 z m -0.790208,3.602139 c 0.392877,0.224483 0.89336,0.08783 1.117865,-0.304903 0.224504,-0.392876 0.08804,-0.893379 -0.304882,-1.117864 z m -2.628156,-3.389135 c -0.392877,-0.224503 -0.893359,-0.08804 -1.117864,0.304882 -0.224504,0.392857 -0.08804,0.893339 0.304882,1.117843 z m 3.441139,1.966368 c -0.392877,-0.224503 -0.89336,-0.08804 -1.117864,0.304882 -0.224505,0.392857 -0.08804,0.89338 0.304881,1.117885 z m 7.598706,6.229437 c 0.392837,0.224504 0.893401,0.08783 1.117884,-0.304902 0.224484,-0.392836 0.08804,-0.89338 -0.304901,-1.117884 z m 3.334739,-0.965383 c 0.422005,-0.163205 0.631863,-0.637644 0.468658,-1.059649 -0.163205,-0.422005 -0.637644,-0.631864 -1.059649,-0.468659 z m -3.223743,-0.510165 c -0.422005,0.163206 -0.631864,0.637666 -0.468659,1.059671 0.163205,0.422005 0.637665,0.631843 1.05967,0.468638 z m 1.105322,0.639402 c -0.06883,-0.447232 -0.487328,-0.75389 -0.93458,-0.685054 -0.447231,0.06884 -0.753889,0.487328 -0.685053,0.93456 z m -1.193584,3.015539 c 0.06883,0.447231 0.487328,0.75389 0.93456,0.685053 0.447251,-0.06884 0.75389,-0.487328 0.685073,-0.934559 z m 0.790249,-3.602179 c -0.392836,-0.224485 -0.893381,-0.08783 -1.117885,0.304901 -0.224484,0.392837 -0.08783,0.893401 0.304902,1.117885 z m 2.628176,3.389153 c 0.392837,0.224505 0.89338,0.08783 1.117864,-0.304901 0.224504,-0.392836 0.08804,-0.893381 -0.304881,-1.117864 z m -5.541237,-12.278039 -2.207805,1.74789 1.017061,1.284746 2.207784,-1.747869 z m -1.190744,1.74789 -2.207806,-1.74789 -1.017081,1.284767 2.207826,1.747869 z m 0.310784,0.642363 v -3.932736 h -1.63863 v 3.932736 z m -1.63863,0 v 9.613381 h 1.63863 v -9.613381 z m -0.87996,12.003613 2.207806,-1.747889 -1.017061,-1.284705 -2.207826,1.747889 z m 1.190745,-1.747889 2.207805,1.747889 1.01704,-1.284705 -2.207784,-1.747889 z m -0.310785,-0.642343 v 3.932736 h 1.63863 v -3.932736 z m -6.314797,-2.657345 2.632752,1.018144 0.591032,-1.528309 -2.632752,-1.018143 z m 2.118502,0.129298 -0.426049,2.766033 1.619531,0.249506 0.42605,-2.766033 z m 0.403274,-0.58664 -3.441138,1.966388 0.812982,1.422766 3.441139,-1.966368 z m 0.812983,1.422786 8.411689,-4.80667 -0.812983,-1.422766 -8.411689,4.80665 z m 10.933445,-5.264074 -2.632732,-1.018164 -0.591011,1.528329 2.632752,1.018143 z m -2.118421,-0.129298 0.426049,-2.766033 -1.619633,-0.249444 -0.426049,2.766013 z m -0.403335,0.586661 3.441159,-1.966409 -0.812983,-1.422725 -3.441159,1.966368 z m -11.155416,1.070904 2.632752,-1.018144 -0.591032,-1.528327 -2.632752,1.018163 z m 3.147002,-1.907029 -0.42605,-2.766013 -1.619531,0.249444 0.426049,2.766033 z m -0.403275,-0.586641 -3.441139,-1.966368 -0.812982,1.422725 3.441138,1.966409 z m -0.812983,1.422766 8.411689,4.80667 0.812983,-1.422786 -8.411689,-4.80665 z m 11.155437,2.31298 -2.632752,1.018143 0.591011,1.528308 2.632732,-1.018143 z m -3.147063,1.907051 0.426049,2.766032 1.619633,-0.249506 -0.426049,-2.766033 z m 0.403315,0.586639 3.441159,1.966368 0.812983,-1.422765 -3.441159,-1.966389 z"
       fill="#000000"
       id="path1-5"
       style="fill:#313a69;fill-opacity:1;stroke-width:1.09243" />
    <path
       d="m 93.737067,78.036846 c 0.334932,-0.265134 0.391445,-0.751538 0.126291,-1.086431 -0.265115,-0.334874 -0.751538,-0.391445 -1.086354,-0.126291 z m -3.044059,0.43716 c -0.334912,0.265115 -0.391425,0.751537 -0.126291,1.086412 0.265115,0.334892 0.751519,0.391444 1.086354,0.126291 z m 0,1.212721 c 0.334836,0.265135 0.821239,0.208583 1.086354,-0.126291 0.265134,-0.334873 0.208622,-0.821297 -0.126291,-1.086411 z m -1.12399,-2.862623 c -0.334816,-0.265134 -0.821258,-0.208563 -1.086374,0.126291 -0.265133,0.334893 -0.208582,0.821297 0.126291,1.086431 z m 0.830629,2.256253 c 0,0.427134 0.346268,0.773403 0.773383,0.773403 0.427115,0 0.773383,-0.346269 0.773383,-0.773403 z m 1.546766,-3.712264 c 0,-0.427114 -0.346268,-0.773383 -0.773383,-0.773383 -0.427115,0 -0.773383,0.346269 -0.773383,0.773383 z m 0,3.712264 c 0,-0.427115 -0.346268,-0.773383 -0.773383,-0.773383 -0.427115,0 -0.773383,0.346268 -0.773383,0.773383 z m -1.546766,9.074455 c 0,0.42711 0.346268,0.77338 0.773383,0.77338 0.427115,0 0.773383,-0.34627 0.773383,-0.77338 z m -1.790692,1.04354 c -0.334893,0.26512 -0.391444,0.75154 -0.126291,1.08636 0.265115,0.33493 0.751558,0.39145 1.086373,0.12629 z m 3.044097,-0.43721 c 0.334932,-0.26511 0.391444,-0.75154 0.126291,-1.08636 -0.265115,-0.33493 -0.751518,-0.39144 -1.086354,-0.12628 z m 0,-1.21268 c -0.334836,-0.26512 -0.821239,-0.20861 -1.086354,0.12628 -0.265115,0.33483 -0.208602,0.82125 0.126291,1.08636 z m 1.12399,2.86258 c 0.334817,0.26512 0.821239,0.2086 1.086355,-0.12629 0.265115,-0.33482 0.208602,-0.82124 -0.126291,-1.08636 z m -0.830629,-2.25623 c 0,-0.42714 -0.346268,-0.77341 -0.773383,-0.77341 -0.427115,0 -0.773383,0.34627 -0.773383,0.77341 z m -1.546766,3.71226 c 0,0.42712 0.346268,0.77339 0.773383,0.77339 0.427115,0 0.773383,-0.34627 0.773383,-0.77339 z m -5.402887,-7.66326 c -0.398366,-0.15406 -0.846208,0.044 -1.000264,0.44238 -0.154056,0.39835 0.04396,0.84619 0.442366,1.00024 z m 1.92726,2.40369 c 0.398366,0.15406 0.846208,-0.044 1.000264,-0.44237 0.154056,-0.39835 -0.04396,-0.84621 -0.442366,-1.00026 z m 1.043319,-0.60356 c 0.06497,-0.42215 -0.22449,-0.8171 -0.64663,-0.88216 -0.42216,-0.065 -0.817094,0.22449 -0.88211,0.64665 z m -1.930904,2.37545 c -0.06497,0.42216 0.22449,0.81712 0.646648,0.88217 0.42214,0.065 0.817075,-0.22449 0.882091,-0.64665 z m 1.550237,-1.8217 c 0.370853,-0.21189 0.499708,-0.6844 0.28779,-1.05521 -0.211919,-0.37081 -0.684344,-0.4997 -1.055196,-0.2878 z m -4.015632,0.51313 c -0.370871,0.2119 -0.499708,0.68439 -0.28779,1.0552 0.211919,0.37081 0.684344,0.49973 1.055196,0.28781 z m 3.248226,-1.85614 c -0.370853,0.21191 -0.499708,0.6844 -0.28779,1.05521 0.211919,0.37081 0.684344,0.49973 1.055196,0.2878 z m 8.707529,-3.194193 c 0.370813,-0.211914 0.499707,-0.684377 0.287808,-1.055213 -0.211899,-0.370851 -0.684401,-0.499708 -1.055214,-0.287789 z m 1.822524,1.010873 c 0.398346,0.15406 0.846186,-0.0439 1.000246,-0.442385 0.15406,-0.39835 -0.0439,-0.846196 -0.44239,-1.000245 z m -1.927278,-2.403715 c -0.398348,-0.154058 -0.846209,0.04395 -1.000264,0.442362 -0.154056,0.398388 0.04396,0.846232 0.442385,1.000282 z m -1.043357,0.603591 c -0.06497,0.422138 0.224489,0.817092 0.646648,0.882152 0.422179,0.06499 0.817113,-0.22449 0.882187,-0.646675 z m 1.930999,-2.375486 c 0.06498,-0.42216 -0.224489,-0.817094 -0.646667,-0.88211 -0.42216,-0.06498 -0.817113,0.22449 -0.882168,0.646649 z m -1.550294,1.821735 c -0.370815,0.211898 -0.499709,0.684339 -0.28781,1.055198 0.211919,0.370812 0.684402,0.499702 1.055216,0.287804 z m 4.015656,-0.513167 c 0.37081,-0.211919 0.4997,-0.684343 0.28779,-1.055176 -0.2119,-0.370872 -0.68439,-0.499708 -1.0552,-0.28779 z m -14.336183,1.424412 c -0.398385,0.154049 -0.59644,0.601895 -0.442366,1.000245 0.154056,0.398355 0.601898,0.596445 1.000264,0.442385 z m 3.043056,0.481559 c 0.398386,-0.15405 0.596441,-0.601894 0.442366,-1.000282 -0.154056,-0.398364 -0.601898,-0.59642 -1.000264,-0.442362 z m -1.043319,-0.603576 c 0.06497,0.422185 0.45995,0.711652 0.88211,0.646675 0.42214,-0.06499 0.711665,-0.460014 0.64663,-0.882152 z m 1.126575,-2.846424 c -0.06498,-0.422159 -0.459951,-0.711684 -0.882091,-0.646649 -0.422158,0.06498 -0.711684,0.45995 -0.646648,0.88211 z m -0.745908,3.400198 c 0.370852,0.211898 0.843277,0.08291 1.055196,-0.287804 0.211918,-0.370859 0.0831,-0.8433 -0.28779,-1.055198 z m -2.48082,-3.199135 c -0.370852,-0.211918 -0.843277,-0.0831 -1.055196,0.28779 -0.211918,0.370833 -0.0831,0.843257 0.28779,1.055176 z m 3.248226,1.856133 c -0.370852,-0.211919 -0.843277,-0.0831 -1.055196,0.287789 -0.211918,0.370836 -0.0831,0.843299 0.28779,1.055213 z m 7.172717,5.880205 c 0.370813,0.21193 0.843315,0.0829 1.055214,-0.2878 0.211899,-0.37081 0.0831,-0.8433 -0.287808,-1.05521 z m 3.147786,-0.91126 c 0.39835,-0.15405 0.59645,-0.60189 0.44239,-1.00024 -0.15406,-0.39835 -0.6019,-0.59644 -1.000246,-0.44238 z m -3.043013,-0.48156 c -0.398347,0.15405 -0.596441,0.60191 -0.442385,1.00026 0.154055,0.39835 0.601916,0.59643 1.000264,0.44237 z m 1.043357,0.60356 c -0.06497,-0.42216 -0.460008,-0.71163 -0.882187,-0.64665 -0.422159,0.065 -0.711625,0.46001 -0.646648,0.88216 z m -1.126671,2.84648 c 0.06497,0.42216 0.460008,0.71163 0.882168,0.64665 0.422178,-0.065 0.711626,-0.46001 0.646667,-0.88217 z m 0.745947,-3.40023 c -0.370814,-0.2119 -0.843297,-0.0829 -1.055216,0.2878 -0.211899,0.37081 -0.08291,0.84332 0.28781,1.05521 z m 2.48084,3.19915 c 0.37081,0.21192 0.8433,0.0829 1.0552,-0.28781 0.21191,-0.37081 0.0831,-0.8433 -0.28779,-1.0552 z m -5.230593,-11.589728 -2.084034,1.649902 0.960044,1.212721 2.084015,-1.649881 z m -1.12399,1.649902 -2.084034,-1.649902 -0.960063,1.212742 2.084053,1.649881 z m 0.293361,0.606351 v -3.712264 h -1.546766 v 3.712264 z m -1.546766,0 v 9.074455 h 1.546766 v -9.074455 z m -0.830629,11.330685 2.084034,-1.6499 -0.960044,-1.21268 -2.084053,1.64989 z m 1.12399,-1.6499 2.084034,1.6499 0.960025,-1.21269 -2.084015,-1.64989 z m -0.293361,-0.60633 v 3.71226 h 1.546766 v -3.71226 z m -5.960785,-2.50838 2.485158,0.96107 0.557898,-1.44263 -2.485158,-0.96106 z m 1.999737,0.12205 -0.402164,2.61098 1.528739,0.23551 0.402165,-2.61096 z m 0.380667,-0.55375 -3.248226,1.85615 0.767406,1.34301 3.248226,-1.85613 z m 0.767406,1.34303 7.940123,-4.53721 -0.767406,-1.34301 -7.940123,4.53719 z m 10.320503,-4.968976 -2.485134,-0.961084 -0.557879,1.442651 2.485157,0.961069 z m -1.999656,-0.122047 0.402164,-2.610968 -1.528835,-0.23546 -0.402164,2.61095 z m -0.380724,0.553774 3.24825,-1.856174 -0.76741,-1.342966 -3.248246,1.85613 z m -10.530035,1.010869 2.485158,-0.961068 -0.557898,-1.442652 -2.485158,0.961085 z m 2.970579,-1.800121 -0.402165,-2.61095 -1.528739,0.23546 0.402164,2.610968 z m -0.380667,-0.553758 -3.248226,-1.85613 -0.767406,1.342966 3.248226,1.856174 z m -0.767406,1.34301 7.940123,4.537209 0.767406,-1.34303 -7.940123,-4.537189 z m 10.530053,2.183309 -2.485157,0.96107 0.557879,1.44263 2.485134,-0.96106 z m -2.970635,1.80015 0.402164,2.61096 1.528835,-0.23551 -0.402164,-2.61098 z m 0.380705,0.55375 3.248246,1.85613 0.76741,-1.343 -3.24825,-1.85616 z"
       fill="#000000"
       id="path1-5-9"
       style="fill:#313a69;fill-opacity:1;stroke-width:1.03119" />
    <path
       d="m 128.2893,9.8347296 c 0.39852,-0.313055 0.46576,-0.887369 0.15027,-1.28279 -0.31545,-0.395398 -0.89421,-0.462192 -1.29258,-0.149117 z m -3.62193,0.5161714 c -0.39849,0.31303 -0.46573,0.887367 -0.15027,1.282765 0.31545,0.395421 0.89419,0.462194 1.29259,0.149118 z m 0,1.431905 c 0.39841,0.313054 0.97714,0.246281 1.29259,-0.149117 0.31546,-0.395397 0.24822,-0.969736 -0.15027,-1.282766 z M 123.33,8.4027996 c -0.39837,-0.313052 -0.97716,-0.246258 -1.2926,0.149117 -0.31546,0.395421 -0.24818,0.969736 0.15026,1.28279 z m 0.98832,2.6640414 c 0,0.504334 0.412,0.913186 0.9202,0.913186 0.5082,0 0.9202,-0.408852 0.9202,-0.913186 z m 1.8404,-4.3832064 c 0,-0.50431 -0.412,-0.913163 -0.9202,-0.913163 -0.5082,0 -0.9202,0.408853 -0.9202,0.913163 z m 0,4.3832064 c 0,-0.50431 -0.412,-0.913162 -0.9202,-0.913162 -0.5082,0 -0.9202,0.408852 -0.9202,0.913162 z m -1.8404,10.714537 c 0,0.50431 0.412,0.913162 0.9202,0.913162 0.5082,0 0.9202,-0.408852 0.9202,-0.913162 z m -2.13063,1.232157 c -0.39847,0.313031 -0.46575,0.887369 -0.15027,1.282699 0.31545,0.395466 0.89423,0.462193 1.29261,0.149116 z m 3.62197,-0.516238 c 0.39852,-0.313031 0.46576,-0.88737 0.15027,-1.282699 -0.31544,-0.395466 -0.89418,-0.462193 -1.29258,-0.149116 z m 0,-1.43186 c -0.39839,-0.313032 -0.97713,-0.246305 -1.29257,0.149116 -0.31545,0.39533 -0.24821,0.969667 0.15026,1.282698 z m 1.33737,3.379959 c 0.39838,0.313031 0.97714,0.246304 1.29259,-0.149117 0.31544,-0.395329 0.2482,-0.969667 -0.15027,-1.282698 z m -0.98831,-2.664018 c 0,-0.504332 -0.412,-0.913186 -0.9202,-0.913186 -0.5082,0 -0.9202,0.408854 -0.9202,0.913186 z m -1.8404,4.383206 c 0,0.504311 0.412,0.913163 0.9202,0.913163 0.5082,0 0.9202,-0.408852 0.9202,-0.913163 z m -6.42856,-9.0483 c -0.47398,-0.1819 -1.00685,0.05191 -1.19015,0.522341 -0.1833,0.470342 0.0524,0.999126 0.52634,1.181025 z m 2.29313,2.838132 c 0.47399,0.1819 1.00685,-0.05191 1.19015,-0.522318 0.1833,-0.470343 -0.0524,-0.999149 -0.52635,-1.18105 z m 1.24138,-0.712641 c 0.0773,-0.498459 -0.26711,-0.964796 -0.76939,-1.041607 -0.5023,-0.07672 -0.9722,0.265062 -1.04956,0.763522 z m -2.29746,2.804779 c -0.0773,0.49846 0.2671,0.964796 0.7694,1.041608 0.50228,0.07672 0.97219,-0.265063 1.04955,-0.763522 z m 1.84452,-2.150944 c 0.44126,-0.250196 0.59458,-0.808097 0.34243,-1.24593 -0.25214,-0.437833 -0.81426,-0.590024 -1.25551,-0.339826 z m -4.77794,0.60587 c -0.44128,0.250197 -0.59458,0.808075 -0.34242,1.245908 0.25214,0.437833 0.81426,0.590046 1.25551,0.339826 z m 3.86486,-2.191626 c -0.44126,0.250219 -0.59457,0.808097 -0.34242,1.24593 0.25215,0.437834 0.81425,0.590047 1.2555,0.339826 z m 10.36054,-3.771488 c 0.44121,-0.25022 0.59457,-0.808075 0.34244,-1.245931 -0.25212,-0.437879 -0.81433,-0.590023 -1.25553,-0.339804 z m 2.16851,1.19357 c 0.47397,0.181899 1.00682,-0.05191 1.19013,-0.522341 0.1833,-0.470343 -0.0524,-0.999127 -0.52637,-1.181025 z m -2.29315,-2.838155 c -0.47398,-0.181898 -1.00686,0.05191 -1.19015,0.522318 -0.18331,0.470389 0.0523,0.999173 0.52636,1.181072 z m -1.24143,0.712686 c -0.0773,0.498437 0.26711,0.964773 0.76941,1.041585 0.50233,0.07672 0.97223,-0.265063 1.04966,-0.763545 z m 2.29757,-2.804825 c 0.0773,-0.498459 -0.2671,-0.9647734 -0.76942,-1.0415394 -0.5023,-0.07672 -0.97223,0.2650634 -1.04964,0.7635224 z m -1.84459,2.150989 c -0.4412,0.250198 -0.59457,0.80803 -0.34245,1.245908 0.25215,0.437835 0.81433,0.590024 1.25554,0.339827 z m 4.77796,-0.605914 c 0.44123,-0.25022 0.59458,-0.80803 0.34243,-1.245886 -0.25212,-0.437901 -0.8143,-0.590022 -1.2555,-0.339803 z m -17.05771,1.681853 c -0.47401,0.181898 -0.70966,0.710682 -0.52634,1.181025 0.1833,0.470344 0.71617,0.70424 1.19015,0.522341 z m 3.62074,0.568601 c 0.47402,-0.181899 0.70967,-0.710683 0.52635,-1.181072 -0.1833,-0.470366 -0.71616,-0.704216 -1.19015,-0.522318 z m -1.24137,-0.712664 c 0.0773,0.498482 0.54726,0.840266 1.04956,0.763545 0.50228,-0.07672 0.84677,-0.543148 0.76939,-1.041585 z m 1.34044,-3.360882 c -0.0773,-0.498459 -0.54727,-0.8403114 -1.04955,-0.7635224 -0.5023,0.07672 -0.84678,0.5430804 -0.7694,1.0415394 z m -0.88751,4.014741 c 0.44125,0.250197 1.00337,0.09789 1.25551,-0.339827 0.25215,-0.437878 0.0989,-0.99571 -0.34243,-1.245908 z m -2.95177,-3.777338 c -0.44125,-0.250219 -1.00337,-0.09812 -1.25551,0.339803 -0.25216,0.437856 -0.0989,0.995666 0.34242,1.245886 z m 3.86485,2.191603 c -0.44125,-0.250219 -1.00335,-0.09812 -1.2555,0.339804 -0.25215,0.437856 -0.0989,0.995711 0.34242,1.245931 z m 8.53437,6.942979 c 0.4412,0.250221 1.00341,0.09789 1.25553,-0.339826 0.25213,-0.437833 0.0989,-0.995711 -0.34244,-1.24593 z m 3.74536,-1.07596 c 0.47398,-0.181899 0.70967,-0.710683 0.52637,-1.181025 -0.18331,-0.470344 -0.71616,-0.704241 -1.19013,-0.522341 z m -3.6207,-0.568602 c -0.47396,0.181901 -0.70967,0.710707 -0.52636,1.18105 0.18329,0.470343 0.71617,0.704218 1.19015,0.522318 z m 1.24143,0.712642 c -0.0773,-0.49846 -0.54733,-0.840243 -1.04966,-0.763522 -0.5023,0.07672 -0.84671,0.543148 -0.76941,1.041607 z m -1.34056,3.36095 c 0.0773,0.498459 0.54734,0.840243 1.04964,0.763522 0.50232,-0.07672 0.84672,-0.543148 0.76942,-1.041608 z m 0.88756,-4.014786 c -0.44121,-0.250198 -1.00339,-0.09789 -1.25554,0.339826 -0.25212,0.437833 -0.0986,0.995734 0.34245,1.24593 z m 2.9518,3.77736 c 0.4412,0.25022 1.00338,0.09789 1.2555,-0.339826 0.25215,-0.437833 0.0989,-0.995711 -0.34243,-1.245908 z m -6.22356,-13.6844144 -2.47966,1.9481014 1.14229,1.431905 2.47964,-1.9480764 z m -1.33737,1.9481014 -2.47966,-1.9481014 -1.14231,1.43193 2.47968,1.9480764 z m 0.34906,0.71594 V 6.6836346 h -1.8404 v 4.3832064 z m -1.8404,0 v 10.714537 h 1.8404 V 11.066841 Z m -0.98832,13.378555 2.47966,-1.948099 -1.14229,-1.43186 -2.47968,1.948098 z m 1.33737,-1.948099 2.47966,1.948099 1.14227,-1.431861 -2.47964,-1.948098 z m -0.34905,-0.715919 v 4.383206 h 1.8404 v -4.383206 z m -7.09237,-2.961728 2.95694,1.134766 0.6638,-1.703368 -2.95693,-1.134764 z m 2.37937,0.144108 -0.47851,3.082865 1.81895,0.278086 0.47851,-3.082866 z m 0.45293,-0.653836 -3.86486,2.191625 0.91309,1.585736 3.86485,-2.191603 z m 0.91308,1.585758 9.44746,-5.357245 -0.91309,-1.585736 -9.44745,5.357223 z m 12.27973,-5.867042 -2.95691,-1.134788 -0.66379,1.703389 2.95694,1.134765 z m -2.37927,-0.144108 0.4785,-3.082865 -1.81906,-0.278017 -0.47851,3.082842 z m -0.453,0.653858 3.86487,-2.191648 -0.91307,-1.58569 -3.86489,2.191604 z m -12.52903,1.193571 2.95693,-1.134767 -0.6638,-1.703388 -2.95694,1.134788 z m 3.53451,-2.125469 -0.47851,-3.082842 -1.81895,0.278017 0.47851,3.082865 z m -0.45294,-0.653836 -3.86485,-2.191604 -0.91309,1.58569 3.86486,2.191648 z m -0.91308,1.585734 9.44745,5.357246 0.91309,-1.585757 -9.44746,-5.357223 z m 12.52905,2.577918 -2.95694,1.134766 0.66379,1.703366 2.95691,-1.134765 z m -3.53458,2.125492 0.47851,3.082865 1.81906,-0.278086 -0.4785,-3.082865 z m 0.45298,0.653836 3.86489,2.191603 0.91307,-1.585734 -3.86487,-2.191626 z"
       fill="#000000"
       id="path1-5-2"
       style="fill:#313a69;fill-opacity:1;stroke-width:1.22224" />
    <path
       d="m 72.031679,30.429973 c -0.428246,0.338997 -0.500508,0.960976 -0.161486,1.389173 0.338997,0.428221 0.960952,0.500532 1.389099,0.161486 z m 0,1.550683 c 0.428147,0.339022 1.050102,0.266711 1.389099,-0.161486 0.339022,-0.428196 0.26676,-1.050176 -0.161486,-1.389173 z m -0.375116,-0.775354 c 0,0.546168 0.442767,0.988935 0.98891,0.988935 0.546143,0 0.98891,-0.442767 0.98891,-0.988935 z m 1.977819,-3.699091 c 0,-0.546143 -0.442767,-0.98891 -0.98891,-0.98891 -0.546143,0 -0.98891,0.442767 -0.98891,0.98891 z m 0,3.699091 c 0,-0.546143 -0.442767,-0.98891 -0.98891,-0.98891 -0.546143,0 -0.98891,0.442767 -0.98891,0.98891 z m -1.602704,-0.775329 1.227589,1.550683 m 0,-1.550683 -1.227589,1.550683 z m 0.375115,0.775329 v -3.699091 h -1.97782 v 3.699091 z m -1.97782,0 h 1.97782 z m -0.03081,0.03187 c -0.002,0.546178 0.43926,0.990472 0.985415,0.99239 0.546158,0.002 0.990475,-0.439226 0.992344,-0.985356 z m 1.212373,0.966835 c 0.532004,-0.123362 0.863251,-0.654711 0.739834,-1.186726 -0.1234,-0.532034 -0.654738,-0.863335 -1.186784,-0.73988 z m -0.840077,-0.190147 c 0.427011,0.34053 1.049241,0.270421 1.389756,-0.156571 0.340514,-0.426991 0.270406,-1.049221 -0.156605,-1.389751 z m -1.658916,-3.852667 c -0.426992,-0.340515 -1.049222,-0.270406 -1.389736,0.156586 -0.340515,0.426991 -0.270406,1.049221 0.156586,1.389736 z m 2.892066,2.306345 c -0.426992,-0.340514 -1.049222,-0.270406 -1.389736,0.156586 -0.340515,0.426992 -0.270406,1.049222 0.156585,1.389736 z m -1.605446,0.769635 1.977762,0.0071 m -1.212373,-0.966835 0.446984,1.926603 z m 0.840057,0.190133 -2.892066,-2.306345 -1.23315,1.546322 2.892065,2.306345 z m -1.233151,1.546322 1.233151,-1.546322 z m 0.0057,0.04396 c 0.425791,0.342075 1.048256,0.274122 1.390277,-0.151683 0.342051,-0.425786 0.274151,-1.048238 -0.151666,-1.390206 z m 1.511804,-0.34506 c 0.23525,-0.492852 0.02635,-1.083122 -0.466541,-1.318337 -0.4929,-0.23524 -1.083205,-0.02639 -1.318409,0.466557 z m -0.672443,0.538244 c 0.532474,-0.121534 0.865615,-0.651725 0.744087,-1.184175 -0.121528,-0.53245 -0.651719,-0.865591 -1.184193,-0.744057 z m -4.046453,-1.105106 c -0.53245,0.121528 -0.865591,0.651719 -0.744063,1.184169 0.121528,0.53245 0.651719,0.865591 1.184169,0.744063 z m 3.606347,-0.823125 c -0.53245,0.121528 -0.865591,0.651719 -0.744063,1.184169 0.121528,0.53245 0.651719,0.865591 1.184169,0.744063 z m -0.399255,1.735048 1.23864,-1.541871 m -1.511804,0.34506 1.784968,0.851751 z m 0.672419,-0.538237 -3.606347,0.823125 0.440106,1.928232 3.606347,-0.823125 z m 0.440106,1.928232 -0.440106,-1.928232 z m 0.03793,0.02295 c 0.532922,-0.119617 0.867894,-0.648647 0.748234,-1.181535 -0.119628,-0.532899 -0.648616,-0.867905 -1.181469,-0.748202 z m 0.672816,-1.397117 c -0.238651,-0.491214 -0.830387,-0.69592 -1.321601,-0.457214 -0.491235,0.238696 -0.695997,0.830434 -0.457246,1.321668 z m 0.0016,0.861327 c 0.236973,-0.492081 0.03016,-1.083109 -0.461895,-1.320072 -0.492058,-0.236963 -1.083086,-0.03015 -1.32006,0.461928 z m -3.386929,2.474622 c -0.236963,0.492058 -0.03015,1.083087 0.461905,1.320049 0.492058,0.236963 1.083086,0.03015 1.320049,-0.461905 z m 1.604975,-3.332766 c -0.236962,0.492058 -0.03015,1.083087 0.461905,1.320049 0.492058,0.236963 1.083087,0.03015 1.320049,-0.461905 z m 1.107584,1.393935 -0.433203,-1.929748 m -0.672816,1.397117 1.778835,-0.864486 z m -0.0016,-0.861304 -1.604975,3.332766 1.781954,0.858144 1.604975,-3.332766 z m 1.781954,0.858144 -1.781954,-0.858144 z m 0.04159,-0.01534 c 0.238751,-0.491234 0.03399,-1.082971 -0.457246,-1.321667 -0.491223,-0.238729 -1.08296,-0.03402 -1.321601,0.457213 z m -0.672816,-1.397117 c -0.532843,-0.119682 -1.061831,0.215324 -1.181469,0.748202 -0.119661,0.532887 0.215312,1.061918 0.748234,1.181535 z m 0.674381,0.535813 c -0.236973,-0.49208 -0.828002,-0.69889 -1.32006,-0.461927 -0.492057,0.236962 -0.698867,0.827991 -0.461894,1.320071 z m -0.176978,4.19091 c 0.236963,0.492057 0.827992,0.698867 1.32005,0.461905 0.492057,-0.236963 0.698867,-0.827991 0.461905,-1.320049 z m -1.604975,-3.332766 c 0.236963,0.492058 0.827991,0.698868 1.320049,0.461905 0.492058,-0.236963 0.698868,-0.827991 0.461905,-1.320049 z m 1.780389,0.0032 -1.778836,-0.864486 m 0.672817,1.397117 0.433203,-1.929748 z m -0.67437,-0.535791 1.604975,3.332766 1.781955,-0.858144 -1.604976,-3.332766 z m 1.781954,-0.858144 -1.781954,0.858144 z m 0.01394,-0.04208 c -0.235204,-0.492943 -0.825509,-0.701796 -1.31841,-0.466557 -0.492918,0.235209 -0.701814,0.82548 -0.466541,1.318337 z M 72.100694,30.474375 C 71.6749,30.816348 71.607,31.4388 71.949027,31.86458 c 0.342021,0.425805 0.964486,0.493758 1.390278,0.151683 z m 0.839385,-0.193179 c -0.532474,-0.121534 -1.062665,0.211607 -1.184193,0.744057 -0.121529,0.53245 0.211612,1.062641 0.744087,1.184175 z m 3.166241,2.751356 c 0.53245,0.121528 1.062641,-0.211613 1.184169,-0.744063 0.121528,-0.53245 -0.211613,-1.06264 -0.744063,-1.184169 z m -3.606347,-0.823125 c 0.53245,0.121528 1.062641,-0.211613 1.184169,-0.744063 0.121528,-0.53245 -0.211613,-1.062641 -0.744063,-1.184169 z m 1.112525,-1.389994 -1.784968,0.851751 m 1.511804,0.34506 -1.23864,-1.54187 z m -0.839361,0.193183 3.606347,0.823125 0.440106,-1.928232 -3.606347,-0.823125 z m 0.440106,-1.928232 -0.440106,1.928232 z m -0.02421,-0.03713 c -0.532046,-0.123455 -1.063383,0.207846 -1.186784,0.739881 -0.123436,0.53203 0.207812,1.063379 0.739834,1.186726 z m -1.212373,0.966835 c 0.0019,0.546116 0.446205,0.987295 0.992344,0.985357 0.546154,-0.0019 0.987383,-0.446213 0.985414,-0.99239 z m 0.372315,-0.776702 c -0.427011,0.34053 -0.49712,0.96276 -0.156605,1.389751 0.340514,0.426992 0.962744,0.497101 1.389756,0.156571 z m 4.125216,-0.760025 c 0.426992,-0.340514 0.4971,-0.962744 0.156586,-1.389736 -0.340515,-0.426992 -0.962745,-0.4971 -1.389737,-0.156586 z m -2.892066,2.306346 c 0.426992,-0.340515 0.4971,-0.962745 0.156586,-1.389736 -0.340515,-0.426992 -0.962745,-0.497101 -1.389737,-0.156586 z m -0.393093,-1.736454 -0.446983,1.926602 m 1.212372,-0.966835 -1.977762,0.0071 z m -0.372296,0.776687 2.892066,-2.306346 -1.233151,-1.546322 -2.892066,2.306346 z m -1.233151,-1.546322 1.233151,1.546322 z"
       style="fill:#313a69;fill-opacity:1;stroke-width:1.31856"
       id="path1-6"
       transform="matrix(0.82055732,0,0,0.83917022,27.128549,-14.067901)" />
    <path
       d="m 72.031679,30.429973 c -0.428246,0.338997 -0.500508,0.960976 -0.161486,1.389173 0.338997,0.428221 0.960952,0.500532 1.389099,0.161486 z m 0,1.550683 c 0.428147,0.339022 1.050102,0.266711 1.389099,-0.161486 0.339022,-0.428196 0.26676,-1.050176 -0.161486,-1.389173 z m -0.375116,-0.775354 c 0,0.546168 0.442767,0.988935 0.98891,0.988935 0.546143,0 0.98891,-0.442767 0.98891,-0.988935 z m 1.977819,-3.699091 c 0,-0.546143 -0.442767,-0.98891 -0.98891,-0.98891 -0.546143,0 -0.98891,0.442767 -0.98891,0.98891 z m 0,3.699091 c 0,-0.546143 -0.442767,-0.98891 -0.98891,-0.98891 -0.546143,0 -0.98891,0.442767 -0.98891,0.98891 z m -1.602704,-0.775329 1.227589,1.550683 m 0,-1.550683 -1.227589,1.550683 z m 0.375115,0.775329 v -3.699091 h -1.97782 v 3.699091 z m -1.97782,0 h 1.97782 z m -0.03081,0.03187 c -0.002,0.546178 0.43926,0.990472 0.985415,0.99239 0.546158,0.002 0.990475,-0.439226 0.992344,-0.985356 z m 1.212373,0.966835 c 0.532004,-0.123362 0.863251,-0.654711 0.739834,-1.186726 -0.1234,-0.532034 -0.654738,-0.863335 -1.186784,-0.73988 z m -0.840077,-0.190147 c 0.427011,0.34053 1.049241,0.270421 1.389756,-0.156571 0.340514,-0.426991 0.270406,-1.049221 -0.156605,-1.389751 z m -1.658916,-3.852667 c -0.426992,-0.340515 -1.049222,-0.270406 -1.389736,0.156586 -0.340515,0.426991 -0.270406,1.049221 0.156586,1.389736 z m 2.892066,2.306345 c -0.426992,-0.340514 -1.049222,-0.270406 -1.389736,0.156586 -0.340515,0.426992 -0.270406,1.049222 0.156585,1.389736 z m -1.605446,0.769635 1.977762,0.0071 m -1.212373,-0.966835 0.446984,1.926603 z m 0.840057,0.190133 -2.892066,-2.306345 -1.23315,1.546322 2.892065,2.306345 z m -1.233151,1.546322 1.233151,-1.546322 z m 0.0057,0.04396 c 0.425791,0.342075 1.048256,0.274122 1.390277,-0.151683 0.342051,-0.425786 0.274151,-1.048238 -0.151666,-1.390206 z m 1.511804,-0.34506 c 0.23525,-0.492852 0.02635,-1.083122 -0.466541,-1.318337 -0.4929,-0.23524 -1.083205,-0.02639 -1.318409,0.466557 z m -0.672443,0.538244 c 0.532474,-0.121534 0.865615,-0.651725 0.744087,-1.184175 -0.121528,-0.53245 -0.651719,-0.865591 -1.184193,-0.744057 z m -4.046453,-1.105106 c -0.53245,0.121528 -0.865591,0.651719 -0.744063,1.184169 0.121528,0.53245 0.651719,0.865591 1.184169,0.744063 z m 3.606347,-0.823125 c -0.53245,0.121528 -0.865591,0.651719 -0.744063,1.184169 0.121528,0.53245 0.651719,0.865591 1.184169,0.744063 z m -0.399255,1.735048 1.23864,-1.541871 m -1.511804,0.34506 1.784968,0.851751 z m 0.672419,-0.538237 -3.606347,0.823125 0.440106,1.928232 3.606347,-0.823125 z m 0.440106,1.928232 -0.440106,-1.928232 z m 0.03793,0.02295 c 0.532922,-0.119617 0.867894,-0.648647 0.748234,-1.181535 -0.119628,-0.532899 -0.648616,-0.867905 -1.181469,-0.748202 z m 0.672816,-1.397117 c -0.238651,-0.491214 -0.830387,-0.69592 -1.321601,-0.457214 -0.491235,0.238696 -0.695997,0.830434 -0.457246,1.321668 z m 0.0016,0.861327 c 0.236973,-0.492081 0.03016,-1.083109 -0.461895,-1.320072 -0.492058,-0.236963 -1.083086,-0.03015 -1.32006,0.461928 z m -3.386929,2.474622 c -0.236963,0.492058 -0.03015,1.083087 0.461905,1.320049 0.492058,0.236963 1.083086,0.03015 1.320049,-0.461905 z m 1.604975,-3.332766 c -0.236962,0.492058 -0.03015,1.083087 0.461905,1.320049 0.492058,0.236963 1.083087,0.03015 1.320049,-0.461905 z m 1.107584,1.393935 -0.433203,-1.929748 m -0.672816,1.397117 1.778835,-0.864486 z m -0.0016,-0.861304 -1.604975,3.332766 1.781954,0.858144 1.604975,-3.332766 z m 1.781954,0.858144 -1.781954,-0.858144 z m 0.04159,-0.01534 c 0.238751,-0.491234 0.03399,-1.082971 -0.457246,-1.321667 -0.491223,-0.238729 -1.08296,-0.03402 -1.321601,0.457213 z m -0.672816,-1.397117 c -0.532843,-0.119682 -1.061831,0.215324 -1.181469,0.748202 -0.119661,0.532887 0.215312,1.061918 0.748234,1.181535 z m 0.674381,0.535813 c -0.236973,-0.49208 -0.828002,-0.69889 -1.32006,-0.461927 -0.492057,0.236962 -0.698867,0.827991 -0.461894,1.320071 z m -0.176978,4.19091 c 0.236963,0.492057 0.827992,0.698867 1.32005,0.461905 0.492057,-0.236963 0.698867,-0.827991 0.461905,-1.320049 z m -1.604975,-3.332766 c 0.236963,0.492058 0.827991,0.698868 1.320049,0.461905 0.492058,-0.236963 0.698868,-0.827991 0.461905,-1.320049 z m 1.780389,0.0032 -1.778836,-0.864486 m 0.672817,1.397117 0.433203,-1.929748 z m -0.67437,-0.535791 1.604975,3.332766 1.781955,-0.858144 -1.604976,-3.332766 z m 1.781954,-0.858144 -1.781954,0.858144 z m 0.01394,-0.04208 c -0.235204,-0.492943 -0.825509,-0.701796 -1.31841,-0.466557 -0.492918,0.235209 -0.701814,0.82548 -0.466541,1.318337 z M 72.100694,30.474375 C 71.6749,30.816348 71.607,31.4388 71.949027,31.86458 c 0.342021,0.425805 0.964486,0.493758 1.390278,0.151683 z m 0.839385,-0.193179 c -0.532474,-0.121534 -1.062665,0.211607 -1.184193,0.744057 -0.121529,0.53245 0.211612,1.062641 0.744087,1.184175 z m 3.166241,2.751356 c 0.53245,0.121528 1.062641,-0.211613 1.184169,-0.744063 0.121528,-0.53245 -0.211613,-1.06264 -0.744063,-1.184169 z m -3.606347,-0.823125 c 0.53245,0.121528 1.062641,-0.211613 1.184169,-0.744063 0.121528,-0.53245 -0.211613,-1.062641 -0.744063,-1.184169 z m 1.112525,-1.389994 -1.784968,0.851751 m 1.511804,0.34506 -1.23864,-1.54187 z m -0.839361,0.193183 3.606347,0.823125 0.440106,-1.928232 -3.606347,-0.823125 z m 0.440106,-1.928232 -0.440106,1.928232 z m -0.02421,-0.03713 c -0.532046,-0.123455 -1.063383,0.207846 -1.186784,0.739881 -0.123436,0.53203 0.207812,1.063379 0.739834,1.186726 z m -1.212373,0.966835 c 0.0019,0.546116 0.446205,0.987295 0.992344,0.985357 0.546154,-0.0019 0.987383,-0.446213 0.985414,-0.99239 z m 0.372315,-0.776702 c -0.427011,0.34053 -0.49712,0.96276 -0.156605,1.389751 0.340514,0.426992 0.962744,0.497101 1.389756,0.156571 z m 4.125216,-0.760025 c 0.426992,-0.340514 0.4971,-0.962744 0.156586,-1.389736 -0.340515,-0.426992 -0.962745,-0.4971 -1.389737,-0.156586 z m -2.892066,2.306346 c 0.426992,-0.340515 0.4971,-0.962745 0.156586,-1.389736 -0.340515,-0.426992 -0.962745,-0.497101 -1.389737,-0.156586 z m -0.393093,-1.736454 -0.446983,1.926602 m 1.212372,-0.966835 -1.977762,0.0071 z m -0.372296,0.776687 2.892066,-2.306346 -1.233151,-1.546322 -2.892066,2.306346 z m -1.233151,-1.546322 1.233151,1.546322 z"
       style="fill:#313a69;fill-opacity:1;stroke-width:1.31856"
       id="path1-6-6"
       transform="matrix(1.0877154,0,0,1.0877154,-23.131868,38.578819)" />
    <path
       d="m 72.031679,30.429973 c -0.428246,0.338997 -0.500508,0.960976 -0.161486,1.389173 0.338997,0.428221 0.960952,0.500532 1.389099,0.161486 z m 0,1.550683 c 0.428147,0.339022 1.050102,0.266711 1.389099,-0.161486 0.339022,-0.428196 0.26676,-1.050176 -0.161486,-1.389173 z m -0.375116,-0.775354 c 0,0.546168 0.442767,0.988935 0.98891,0.988935 0.546143,0 0.98891,-0.442767 0.98891,-0.988935 z m 1.977819,-3.699091 c 0,-0.546143 -0.442767,-0.98891 -0.98891,-0.98891 -0.546143,0 -0.98891,0.442767 -0.98891,0.98891 z m 0,3.699091 c 0,-0.546143 -0.442767,-0.98891 -0.98891,-0.98891 -0.546143,0 -0.98891,0.442767 -0.98891,0.98891 z m -1.602704,-0.775329 1.227589,1.550683 m 0,-1.550683 -1.227589,1.550683 z m 0.375115,0.775329 v -3.699091 h -1.97782 v 3.699091 z m -1.97782,0 h 1.97782 z m -0.03081,0.03187 c -0.002,0.546178 0.43926,0.990472 0.985415,0.99239 0.546158,0.002 0.990475,-0.439226 0.992344,-0.985356 z m 1.212373,0.966835 c 0.532004,-0.123362 0.863251,-0.654711 0.739834,-1.186726 -0.1234,-0.532034 -0.654738,-0.863335 -1.186784,-0.73988 z m -0.840077,-0.190147 c 0.427011,0.34053 1.049241,0.270421 1.389756,-0.156571 0.340514,-0.426991 0.270406,-1.049221 -0.156605,-1.389751 z m -1.658916,-3.852667 c -0.426992,-0.340515 -1.049222,-0.270406 -1.389736,0.156586 -0.340515,0.426991 -0.270406,1.049221 0.156586,1.389736 z m 2.892066,2.306345 c -0.426992,-0.340514 -1.049222,-0.270406 -1.389736,0.156586 -0.340515,0.426992 -0.270406,1.049222 0.156585,1.389736 z m -1.605446,0.769635 1.977762,0.0071 m -1.212373,-0.966835 0.446984,1.926603 z m 0.840057,0.190133 -2.892066,-2.306345 -1.23315,1.546322 2.892065,2.306345 z m -1.233151,1.546322 1.233151,-1.546322 z m 0.0057,0.04396 c 0.425791,0.342075 1.048256,0.274122 1.390277,-0.151683 0.342051,-0.425786 0.274151,-1.048238 -0.151666,-1.390206 z m 1.511804,-0.34506 c 0.23525,-0.492852 0.02635,-1.083122 -0.466541,-1.318337 -0.4929,-0.23524 -1.083205,-0.02639 -1.318409,0.466557 z m -0.672443,0.538244 c 0.532474,-0.121534 0.865615,-0.651725 0.744087,-1.184175 -0.121528,-0.53245 -0.651719,-0.865591 -1.184193,-0.744057 z m -4.046453,-1.105106 c -0.53245,0.121528 -0.865591,0.651719 -0.744063,1.184169 0.121528,0.53245 0.651719,0.865591 1.184169,0.744063 z m 3.606347,-0.823125 c -0.53245,0.121528 -0.865591,0.651719 -0.744063,1.184169 0.121528,0.53245 0.651719,0.865591 1.184169,0.744063 z m -0.399255,1.735048 1.23864,-1.541871 m -1.511804,0.34506 1.784968,0.851751 z m 0.672419,-0.538237 -3.606347,0.823125 0.440106,1.928232 3.606347,-0.823125 z m 0.440106,1.928232 -0.440106,-1.928232 z m 0.03793,0.02295 c 0.532922,-0.119617 0.867894,-0.648647 0.748234,-1.181535 -0.119628,-0.532899 -0.648616,-0.867905 -1.181469,-0.748202 z m 0.672816,-1.397117 c -0.238651,-0.491214 -0.830387,-0.69592 -1.321601,-0.457214 -0.491235,0.238696 -0.695997,0.830434 -0.457246,1.321668 z m 0.0016,0.861327 c 0.236973,-0.492081 0.03016,-1.083109 -0.461895,-1.320072 -0.492058,-0.236963 -1.083086,-0.03015 -1.32006,0.461928 z m -3.386929,2.474622 c -0.236963,0.492058 -0.03015,1.083087 0.461905,1.320049 0.492058,0.236963 1.083086,0.03015 1.320049,-0.461905 z m 1.604975,-3.332766 c -0.236962,0.492058 -0.03015,1.083087 0.461905,1.320049 0.492058,0.236963 1.083087,0.03015 1.320049,-0.461905 z m 1.107584,1.393935 -0.433203,-1.929748 m -0.672816,1.397117 1.778835,-0.864486 z m -0.0016,-0.861304 -1.604975,3.332766 1.781954,0.858144 1.604975,-3.332766 z m 1.781954,0.858144 -1.781954,-0.858144 z m 0.04159,-0.01534 c 0.238751,-0.491234 0.03399,-1.082971 -0.457246,-1.321667 -0.491223,-0.238729 -1.08296,-0.03402 -1.321601,0.457213 z m -0.672816,-1.397117 c -0.532843,-0.119682 -1.061831,0.215324 -1.181469,0.748202 -0.119661,0.532887 0.215312,1.061918 0.748234,1.181535 z m 0.674381,0.535813 c -0.236973,-0.49208 -0.828002,-0.69889 -1.32006,-0.461927 -0.492057,0.236962 -0.698867,0.827991 -0.461894,1.320071 z m -0.176978,4.19091 c 0.236963,0.492057 0.827992,0.698867 1.32005,0.461905 0.492057,-0.236963 0.698867,-0.827991 0.461905,-1.320049 z m -1.604975,-3.332766 c 0.236963,0.492058 0.827991,0.698868 1.320049,0.461905 0.492058,-0.236963 0.698868,-0.827991 0.461905,-1.320049 z m 1.780389,0.0032 -1.778836,-0.864486 m 0.672817,1.397117 0.433203,-1.929748 z m -0.67437,-0.535791 1.604975,3.332766 1.781955,-0.858144 -1.604976,-3.332766 z m 1.781954,-0.858144 -1.781954,0.858144 z m 0.01394,-0.04208 c -0.235204,-0.492943 -0.825509,-0.701796 -1.31841,-0.466557 -0.492918,0.235209 -0.701814,0.82548 -0.466541,1.318337 z M 72.100694,30.474375 C 71.6749,30.816348 71.607,31.4388 71.949027,31.86458 c 0.342021,0.425805 0.964486,0.493758 1.390278,0.151683 z m 0.839385,-0.193179 c -0.532474,-0.121534 -1.062665,0.211607 -1.184193,0.744057 -0.121529,0.53245 0.211612,1.062641 0.744087,1.184175 z m 3.166241,2.751356 c 0.53245,0.121528 1.062641,-0.211613 1.184169,-0.744063 0.121528,-0.53245 -0.211613,-1.06264 -0.744063,-1.184169 z m -3.606347,-0.823125 c 0.53245,0.121528 1.062641,-0.211613 1.184169,-0.744063 0.121528,-0.53245 -0.211613,-1.062641 -0.744063,-1.184169 z m 1.112525,-1.389994 -1.784968,0.851751 m 1.511804,0.34506 -1.23864,-1.54187 z m -0.839361,0.193183 3.606347,0.823125 0.440106,-1.928232 -3.606347,-0.823125 z m 0.440106,-1.928232 -0.440106,1.928232 z m -0.02421,-0.03713 c -0.532046,-0.123455 -1.063383,0.207846 -1.186784,0.739881 -0.123436,0.53203 0.207812,1.063379 0.739834,1.186726 z m -1.212373,0.966835 c 0.0019,0.546116 0.446205,0.987295 0.992344,0.985357 0.546154,-0.0019 0.987383,-0.446213 0.985414,-0.99239 z m 0.372315,-0.776702 c -0.427011,0.34053 -0.49712,0.96276 -0.156605,1.389751 0.340514,0.426992 0.962744,0.497101 1.389756,0.156571 z m 4.125216,-0.760025 c 0.426992,-0.340514 0.4971,-0.962744 0.156586,-1.389736 -0.340515,-0.426992 -0.962745,-0.4971 -1.389737,-0.156586 z m -2.892066,2.306346 c 0.426992,-0.340515 0.4971,-0.962745 0.156586,-1.389736 -0.340515,-0.426992 -0.962745,-0.497101 -1.389737,-0.156586 z m -0.393093,-1.736454 -0.446983,1.926602 m 1.212372,-0.966835 -1.977762,0.0071 z m -0.372296,0.776687 2.892066,-2.306346 -1.233151,-1.546322 -2.892066,2.306346 z m -1.233151,-1.546322 1.233151,1.546322 z"
       style="fill:#313a69;fill-opacity:1;stroke-width:1.31856"
       id="path1-6-6-5"
       transform="translate(51.532977,39.957424)" />
    <path
       d="m 56.792722,16.320186 c 0.354824,-0.280881 0.414693,-0.796172 0.133792,-1.150954 -0.28086,-0.354763 -0.796172,-0.414693 -1.150873,-0.133792 z m -3.224845,0.463123 c -0.354803,0.28086 -0.414673,0.796172 -0.133792,1.150934 0.28086,0.354782 0.796152,0.414692 1.150873,0.133792 z m 0,1.284746 c 0.354721,0.28088 0.870012,0.22097 1.150872,-0.133792 0.280881,-0.354762 0.221012,-0.870074 -0.133791,-1.150934 z m -1.190745,-3.032636 c -0.354701,-0.28088 -0.870033,-0.22095 -1.150894,0.133792 -0.28088,0.354782 -0.22097,0.870074 0.133792,1.150954 z m 0.87996,2.390253 c 0,0.452501 0.366834,0.819335 0.819315,0.819335 0.452481,0 0.819315,-0.366834 0.819315,-0.819335 z m 1.63863,-3.932736 c 0,-0.452481 -0.366834,-0.819315 -0.819315,-0.819315 -0.452481,0 -0.819315,0.366834 -0.819315,0.819315 z m 0,3.932736 c 0,-0.452481 -0.366834,-0.819315 -0.819315,-0.819315 -0.452481,0 -0.819315,0.366834 -0.819315,0.819315 z m -1.63863,9.613381 c 0,0.452481 0.366834,0.819315 0.819315,0.819315 0.452481,0 0.819315,-0.366834 0.819315,-0.819315 z m -1.897041,1.105527 c -0.354783,0.28086 -0.414693,0.796172 -0.133792,1.150873 0.28086,0.354824 0.796193,0.414692 1.150893,0.133791 z m 3.224887,-0.463184 c 0.354823,-0.28086 0.414692,-0.796172 0.133791,-1.150873 -0.280861,-0.354824 -0.796151,-0.414693 -1.150873,-0.133791 z m 0,-1.284705 c -0.354722,-0.280861 -0.870013,-0.220992 -1.150874,0.133791 -0.28086,0.354701 -0.22099,0.870013 0.133792,1.150873 z m 1.190744,3.032594 c 0.354701,0.28086 0.870012,0.220992 1.150873,-0.133792 0.28086,-0.3547 0.220991,-0.870012 -0.133791,-1.150872 z m -0.87996,-2.390232 c 0,-0.452501 -0.366834,-0.819335 -0.819315,-0.819335 -0.452481,0 -0.819315,0.366834 -0.819315,0.819335 z m -1.63863,3.932736 c 0,0.452481 0.366834,0.819315 0.819315,0.819315 0.452481,0 0.819315,-0.366834 0.819315,-0.819315 z M 47.533327,22.8534 c -0.422026,-0.163205 -0.896465,0.04657 -1.05967,0.468659 -0.163206,0.422005 0.04657,0.896444 0.468638,1.059649 z m 2.04172,2.546452 c 0.422025,0.163205 0.896464,-0.04657 1.05967,-0.468638 0.163205,-0.422005 -0.04657,-0.896465 -0.468638,-1.059671 z m 1.105282,-0.639401 c 0.06883,-0.447232 -0.237823,-0.865642 -0.685034,-0.93456 -0.447232,-0.06884 -0.865621,0.237822 -0.934498,0.685054 z m -2.045581,2.516527 c -0.06883,0.447231 0.237822,0.865641 0.685053,0.934559 0.447211,0.06883 0.865601,-0.237822 0.934478,-0.685053 z m 1.642306,-1.929887 c 0.392878,-0.224484 0.529386,-0.725048 0.304882,-1.117885 -0.224505,-0.392836 -0.724988,-0.529386 -1.117865,-0.304901 z m -4.254121,0.543602 c -0.392898,0.224483 -0.529386,0.725028 -0.304882,1.117864 0.224505,0.392836 0.724987,0.529406 1.117864,0.304901 z m 3.441138,-1.966388 c -0.392877,0.224504 -0.529386,0.725048 -0.304881,1.117884 0.224504,0.392836 0.724987,0.529406 1.117864,0.304902 z m 9.224672,-3.383884 c 0.392836,-0.224505 0.529385,-0.725028 0.304901,-1.117885 -0.224483,-0.392877 -0.725047,-0.529385 -1.117884,-0.304882 z m 1.930765,1.070904 c 0.422005,0.163205 0.896444,-0.04657 1.059649,-0.468659 0.163205,-0.422005 -0.04657,-0.896444 -0.468658,-1.059649 z m -2.041741,-2.546472 c -0.422005,-0.163205 -0.896465,0.04657 -1.05967,0.468638 -0.163205,0.422046 0.04657,0.896485 0.468659,1.05969 z m -1.105322,0.639442 c -0.06883,0.447211 0.237822,0.86562 0.685053,0.934539 0.447252,0.06884 0.865642,-0.237822 0.93458,-0.685074 z m 2.045682,-2.516568 c 0.06884,-0.447231 -0.237822,-0.865621 -0.685073,-0.934498 -0.447232,-0.06884 -0.865641,0.237822 -0.93456,0.685053 z m -1.642367,1.929927 c -0.392837,0.224485 -0.529386,0.724988 -0.304902,1.117864 0.224504,0.392838 0.725049,0.529386 1.117885,0.304903 z m 4.254142,-0.543643 c 0.392837,-0.224504 0.529385,-0.724986 0.304881,-1.117843 -0.224484,-0.392898 -0.725027,-0.529385 -1.117864,-0.304882 z m -15.187607,1.509006 c -0.422046,0.163205 -0.631863,0.637644 -0.468638,1.059649 0.163205,0.422006 0.637644,0.631864 1.05967,0.468659 z m 3.223784,0.510164 c 0.422046,-0.163205 0.631863,-0.637644 0.468638,-1.05969 -0.163206,-0.422026 -0.637645,-0.631843 -1.05967,-0.468638 z M 49.060797,19.95376 c 0.06883,0.447252 0.487266,0.75391 0.934498,0.685074 0.447211,-0.06884 0.753931,-0.487328 0.685034,-0.934539 z m 1.193482,-3.015478 c -0.06884,-0.447231 -0.487267,-0.753951 -0.934478,-0.685053 -0.447231,0.06884 -0.753951,0.487267 -0.685053,0.934498 z m -0.790208,3.602139 c 0.392877,0.224483 0.89336,0.08783 1.117865,-0.304903 0.224504,-0.392876 0.08804,-0.893379 -0.304882,-1.117864 z m -2.628156,-3.389135 c -0.392877,-0.224503 -0.893359,-0.08804 -1.117864,0.304882 -0.224504,0.392857 -0.08804,0.893339 0.304882,1.117843 z m 3.441139,1.966368 c -0.392877,-0.224503 -0.89336,-0.08804 -1.117864,0.304882 -0.224505,0.392857 -0.08804,0.89338 0.304881,1.117885 z m 7.598706,6.229437 c 0.392837,0.224504 0.893401,0.08783 1.117884,-0.304902 0.224484,-0.392836 0.08804,-0.89338 -0.304901,-1.117884 z m 3.334739,-0.965383 c 0.422005,-0.163205 0.631863,-0.637644 0.468658,-1.059649 -0.163205,-0.422005 -0.637644,-0.631864 -1.059649,-0.468659 z m -3.223743,-0.510165 c -0.422005,0.163206 -0.631864,0.637666 -0.468659,1.059671 0.163205,0.422005 0.637665,0.631843 1.05967,0.468638 z m 1.105322,0.639402 c -0.06883,-0.447232 -0.487328,-0.75389 -0.93458,-0.685054 -0.447231,0.06884 -0.753889,0.487328 -0.685053,0.93456 z m -1.193584,3.015539 c 0.06883,0.447231 0.487328,0.75389 0.93456,0.685053 0.447251,-0.06884 0.75389,-0.487328 0.685073,-0.934559 z m 0.790249,-3.602179 c -0.392836,-0.224485 -0.893381,-0.08783 -1.117885,0.304901 -0.224484,0.392837 -0.08783,0.893401 0.304902,1.117885 z m 2.628176,3.389153 c 0.392837,0.224505 0.89338,0.08783 1.117864,-0.304901 0.224504,-0.392836 0.08804,-0.893381 -0.304881,-1.117864 z m -5.541237,-12.278039 -2.207805,1.74789 1.017061,1.284746 2.207784,-1.747869 z m -1.190744,1.74789 -2.207806,-1.74789 -1.017081,1.284767 2.207826,1.747869 z m 0.310784,0.642363 v -3.932736 h -1.63863 v 3.932736 z m -1.63863,0 v 9.613381 h 1.63863 v -9.613381 z m -0.87996,12.003613 2.207806,-1.747889 -1.017061,-1.284705 -2.207826,1.747889 z m 1.190745,-1.747889 2.207805,1.747889 1.01704,-1.284705 -2.207784,-1.747889 z m -0.310785,-0.642343 v 3.932736 h 1.63863 v -3.932736 z m -6.314797,-2.657345 2.632752,1.018144 0.591032,-1.528309 -2.632752,-1.018143 z m 2.118502,0.129298 -0.426049,2.766033 1.619531,0.249506 0.42605,-2.766033 z m 0.403274,-0.58664 -3.441138,1.966388 0.812982,1.422766 3.441139,-1.966368 z m 0.812983,1.422786 8.411689,-4.80667 -0.812983,-1.422766 -8.411689,4.80665 z m 10.933445,-5.264074 -2.632732,-1.018164 -0.591011,1.528329 2.632752,1.018143 z m -2.118421,-0.129298 0.426049,-2.766033 -1.619633,-0.249444 -0.426049,2.766013 z m -0.403335,0.586661 3.441159,-1.966409 -0.812983,-1.422725 -3.441159,1.966368 z m -11.155416,1.070904 2.632752,-1.018144 -0.591032,-1.528327 -2.632752,1.018163 z m 3.147002,-1.907029 -0.42605,-2.766013 -1.619531,0.249444 0.426049,2.766033 z m -0.403275,-0.586641 -3.441139,-1.966368 -0.812982,1.422725 3.441138,1.966409 z m -0.812983,1.422766 8.411689,4.80667 0.812983,-1.422786 -8.411689,-4.80665 z m 11.155437,2.31298 -2.632752,1.018143 0.591011,1.528308 2.632732,-1.018143 z m -3.147063,1.907051 0.426049,2.766032 1.619633,-0.249506 -0.426049,-2.766033 z m 0.403315,0.586639 3.441159,1.966368 0.812983,-1.422765 -3.441159,-1.966389 z"
       fill="#000000"
       id="path15"
       style="fill:#313a69;fill-opacity:1;stroke-width:1.09243" />
  </g>
  <path
     style="font-size:18.6667px;font-family:Poppins;-inkscape-font-specification:Poppins;fill:#313a69"
     d="m 21.83457,98.489383 c -3.658673,0 -6.533345,2.744007 -6.533345,6.645347 0,3.90134 2.874672,6.62668 6.533345,6.62668 3.528007,0 6.085345,-2.59467 6.384012,-5.82401 v -1.30667 h -7.000013 v 1.38133 h 5.189343 c -0.261334,2.57601 -2.016004,4.21868 -4.573342,4.21868 -2.744005,0 -4.797342,-1.97867 -4.797342,-5.09601 0,-3.13601 2.053337,-5.11468 4.797342,-5.11468 1.829337,0 3.248006,0.87734 3.957341,2.38934 h 2.03467 C 26.855913,99.908052 24.578575,98.489383 21.83457,98.489383 Z m 12.674688,0.149333 h -4.050674 v 13.010694 h 4.050674 c 4.274674,0 6.906679,-2.44534 6.906679,-6.47735 0,-4.03201 -2.632005,-6.533344 -6.906679,-6.533344 z M 32.157254,110.2494 v -10.22935 h 2.352004 c 3.397339,0 5.170676,1.97867 5.170676,5.15201 0,3.17334 -1.773337,5.07734 -5.170676,5.07734 z m 18.890715,-2.25867 c 0,1.41867 -1.008002,2.25867 -2.688005,2.25867 h -3.005339 v -4.592 h 2.949339 c 1.661336,0 2.744005,0.896 2.744005,2.33333 z m -0.336001,-5.84267 c 0,1.32533 -0.914668,2.10933 -2.501338,2.10933 h -2.856005 v -4.21867 h 2.818672 c 1.661336,0 2.538671,0.82133 2.538671,2.10934 z m 2.03467,6.01067 c 0,-1.60533 -1.157335,-2.968 -2.576004,-3.21067 1.250669,-0.41067 2.277337,-1.36267 2.277337,-3.00534 0,-1.81067 -1.381336,-3.304004 -4.125341,-3.304004 h -4.666675 v 13.010694 h 4.853342 c 2.688005,0 4.237341,-1.53067 4.237341,-3.49068 z m 14.690713,0.70934 c -0.07467,-3.65868 -6.010677,-2.33334 -6.010677,-4.76001 0,-0.82134 0.746668,-1.41867 1.997336,-1.41867 1.36267,0 2.146671,0.74667 2.221338,1.77334 h 1.69867 c -0.112001,-1.99734 -1.605337,-3.21068 -3.864007,-3.21068 -2.277338,0 -3.752007,1.28801 -3.752007,2.85601 0,3.80801 6.048011,2.48267 6.048011,4.76001 0,0.84 -0.746668,1.512 -2.090671,1.512 -1.437336,0 -2.314671,-0.74667 -2.408004,-1.736 h -1.75467 c 0.112,1.86667 1.792003,3.17334 4.181341,3.17334 2.258671,0 3.73334,-1.26934 3.73334,-2.94934 z m 2.762657,-0.0187 c 0,2.05334 1.026669,2.80001 2.837339,2.80001 h 1.530669 v -1.43734 h -1.250669 c -1.045335,0 -1.418669,-0.35467 -1.418669,-1.36267 v -6.02934 h 2.669338 v -1.40001 h -2.669338 v -2.576 h -1.69867 v 2.576 h -1.325335 v 1.40001 h 1.325335 z m 5.786684,-2.352 c 0,3.17334 2.109337,5.32001 4.834675,5.32001 1.885337,0 3.210673,-0.97067 3.826674,-2.07201 v 1.90401 h 1.717336 v -10.22936 h -1.717336 v 1.86667 c -0.597334,-1.064 -1.904003,-2.03467 -3.808007,-2.03467 -2.744005,0 -4.853342,2.05334 -4.853342,5.24535 z m 8.661349,0.0187 c 0,2.40801 -1.605336,3.80801 -3.472006,3.80801 -1.86667,0 -3.45334,-1.41867 -3.45334,-3.82667 0,-2.40801 1.58667,-3.77068 3.45334,-3.77068 1.86667,0 3.472006,1.41867 3.472006,3.78934 z m 4.965355,2.33334 c 0,2.05334 1.026668,2.80001 2.837338,2.80001 h 1.53067 v -1.43734 h -1.250669 c -1.045336,0 -1.41867,-0.35467 -1.41867,-1.36267 v -6.02934 h 2.669339 v -1.40001 h -2.669339 v -2.576 h -1.698669 v 2.576 H 88.28806 v 1.40001 h 1.325336 z m 6.421351,2.80001 h 1.69867 v -10.22936 h -1.69867 z m 0.877335,-11.890692 c 0.616001,0 1.120002,-0.504001 1.120002,-1.157335 0,-0.653335 -0.504001,-1.157336 -1.120002,-1.157336 -0.653335,0 -1.157335,0.504001 -1.157335,1.157336 0,0.653334 0.504,1.157335 1.157335,1.157335 z m 3.080008,6.757342 c 0,3.24801 2.072,5.30135 4.98401,5.30135 2.53867,0 4.20001,-1.41867 4.72267,-3.45334 h -1.82933 c -0.37334,1.288 -1.38134,2.016 -2.89334,2.016 -1.86667,0 -3.24801,-1.32533 -3.24801,-3.86401 0,-2.50133 1.38134,-3.82667 3.24801,-3.82667 1.512,0 2.53867,0.784 2.89334,2.016 h 1.82933 c -0.52266,-2.14667 -2.184,-3.45334 -4.72267,-3.45334 -2.91201,0 -4.98401,2.05334 -4.98401,5.26401 z"
     id="text1"
     aria-label="GDB static" />
</svg>
